<?xml version="1.0" encoding="UTF-8"?>
<svg id="Layer_2" data-name="Layer 2" xmlns="http://www.w3.org/2000/svg" xmlns:xlink="http://www.w3.org/1999/xlink" viewBox="0 0 496.06 3494.67">
  <defs>
    <style>
      .cls-1 {
        fill: #dd2825;
      }

      .cls-1, .cls-2, .cls-3, .cls-4, .cls-5, .cls-6, .cls-7, .cls-8 {
        stroke-width: 0px;
      }

      .cls-2 {
        fill: #2c68a9;
      }

      .cls-3 {
        fill: none;
      }

      .cls-4 {
        fill: #1a99cf;
      }

      .cls-5 {
        fill: #f5bb20;
      }

      .cls-6 {
        fill: #e35953;
      }

      .cls-9 {
        clip-path: url(#clippath);
      }

      .cls-7 {
        fill: #ed9226;
      }

      .cls-8 {
        fill: #010100;
      }
    </style>
    <clipPath id="clippath">
      <rect class="cls-3" x=".04" width="496.02" height="3494.67"/>
    </clipPath>
  </defs>
  <g id="_레이어_1" data-name="레이어 1">
    <rect class="cls-8" y="3.55" width="496.06" height="3491.12"/>
    <g class="cls-9">
      <g>
        <g>
          <g>
            <path class="cls-6" d="M-445.51,1763.31c-11.83,56.34-19.63,111.35-19.63,168.64,191.94,5.65,383.88,11.29,575.82,16.93,1.82-61.25,19.48-107.43,53.64-161.02-203.03-11.86-406.8-12.69-609.82-24.55Z"/>
            <path class="cls-4" d="M.14,1922.6c41.12-5.35,97.21-10.83,118.64-49.11,13.74-24.55,9.73-50.03-18.85-63.34-72.59-33.82-172.09-33.43-253.21-34.43-78.42-.96-178.95-4.16-242.75,30.66-29.67,16.19-103.56,89.79-53.52,116.16,37.8,19.92,107.22,13.38,155.71,13.62,98.27.47,200.04-1.34,293.98-13.55Z"/>
          </g>
          <g>
            <path class="cls-4" d="M324.89,2154.28c29.13,42.71,26.74,106.69-2.77,149.54,78.75,2.32,157.5,4.63,236.25,6.95,29.13-42.3,29.48-103.83,12.3-149.26-81.92-2.41-163.85-4.82-245.77-7.23Z"/>
            <path class="cls-6" d="M509.36,2292.03c59.87-11.24,101.14-76.34,35.79-111.02-40.39-21.44-139.86-41.61-166.63,7.26-13.94,25.45-57.46,92.72-38.78,108.74,27.17,23.31,118.92,4.54,169.63-4.97Z"/>
          </g>
          <g>
            <path class="cls-2" d="M-134.22,2544.89c12.99,78.18,50.42,129.8,111.38,187.34,108.69,3.2,217.37,6.39,326.06,9.59-81.14-43.28-186.47-98.36-200.43-189.96-79-2.32-158.01-4.65-237.01-6.97Z"/>
            <path class="cls-4" d="M191.9,2715.48c33.65-23.02-86.03-112.87-111.56-131.38-48.34-35.05-143.74-57.79-168.56,11.77-16.54,46.34,13.82,105.43,65.87,126.28,57.88,23.18,174.92,20.24,214.25-6.66Z"/>
          </g>
          <g>
            <path class="cls-2" d="M440.24,2307.3c-32.99,34.18-50.09,42.86-98.31,57.57,39.37,1.16,78.75,2.31,118.12,3.47,48.22-14.72,65.32-23.39,98.31-57.57-39.37-1.16-78.75-2.32-118.12-3.47Z"/>
            <path class="cls-6" d="M448.36,2363.1c29.7-3.47,85.8-12.95,82.19-39.02-2.27-16.42-46.63-16.33-88.76,4.08-42.24,20.46-84.4,31.44-85.42,35.09-1.02,3.69,42.84,5.6,91.99-.15Z"/>
          </g>
          <g>
            <path class="cls-2" d="M322.12,2303.83c-101.48,104.71-276.72,45.15-403.65,109.58,39.37,1.16,78.75,2.32,118.12,3.47,126.93-64.43,302.16-4.87,403.64-109.58-39.37-1.16-78.75-2.31-118.12-3.47Z"/>
            <path class="cls-4" d="M59.28,2392.58c93.85-17.92,243.14,8.26,320.33-47.17,15.99-11.48,25.76-37.18-.82-39.01-23.15-1.59-90.61,43.44-111.52,49.11-89.22,24.2-260.27-5.14-320.85,45.82-2.24,1.89-4.43,5.45-6.65,8.18,30.93,13.93,86.85-10.7,119.51-16.94Z"/>
          </g>
          <g>
            <path class="cls-2" d="M-465.14,1931.95c7.36,120.02,219.11,125.76,314.76,131.28,137.62,7.94,311.67-7.76,434.61,57.39,87.7,2.58,175.4,5.16,263.11,7.74-129.31-113.93-394.63,28.75-436.66-179.47-191.94-5.65-383.88-11.29-575.82-16.93Z"/>
            <path class="cls-4" d="M423.05,2095.05c-.16-11.05-79.93-15.27-110-17.35-84.49-5.84-157.6-24.22-231.17-58.38-83.77-38.9-169.63-84.83-270.12-77.57-30.97,2.24-191.36,45.31-122.51,88.88,77.08,48.77,215.54,34.76,308.77,39.32,87.41,4.28,174.67,11.25,258.64,33.79,49.87,13.39,166.7,12.14,166.4-8.69Z"/>
          </g>
          <g>
            <path class="cls-2" d="M-361.9,1545.57c-15.48,28.17-29.49,57.57-41.45,87.04,225.99,24.51,456.09,14.17,682.07,38.73,33.59-27.2,69.06-52.57,105.62-76.63-245.82-35.07-500.71-12.64-746.25-49.14Z"/>
            <path class="cls-4" d="M172.6,1651.76c31.39-.18,121.49,9.22,151.43-16.16,15.98-13.55,24.13-28.71-11.2-34.38-94.9-15.24-212.91-26.98-317.48-31.66-99.89-4.48-209.36-14.01-303.11,2.5-21.89,3.85-110.68,37.9-80.21,56.43,34.49,20.97,120.11,13.41,177.08,15.69,127.73,5.1,256.8,8.31,383.49,7.6Z"/>
          </g>
          <g>
            <path class="cls-6" d="M284.24,2120.62c13.1,7.31,18.93,11.4,28.83,20.69,83.62,2.46,167.24,4.92,250.86,7.38-5.66-9.16-9.02-13.18-16.59-20.33-87.7-2.58-175.41-5.16-263.11-7.74Z"/>
            <path class="cls-4" d="M503.53,2143.71c18.11.24,36.93.11,51.94-6.64-11.96-4.3-25.09-6.11-37.58-6.86-59.14-3.55-128.51-11.09-189.15-4.06-31.62,3.66-31.05,11.29-5.33,14.03,58.48,6.23,121.78,2.75,180.12,3.53Z"/>
          </g>
          <g>
            <path class="cls-6" d="M-132.84,2504.7c-1.94,15.06-2.38,24.14-1.37,40.18,79,2.32,158.01,4.65,237.01,6.97-2.22-16.08-1.34-25.15.61-40.21-78.75-2.32-157.5-4.63-236.25-6.95Z"/>
            <path class="cls-4" d="M44.23,2544.31c21.76-.48,41.64-2.79,57.53-14.54-8.54-8.15-20.52-11.8-32.71-13.22-48.73-5.65-113.03-14.2-164.66-1.62-39.05,9.51-49.71,23.53-26,27.76,52.17,9.3,112.67,2.79,165.85,1.62Z"/>
          </g>
          <g>
            <path class="cls-2" d="M388.02,3104.2c6.05,22.52,7.56,34.29,6.62,59.2,217.35,6.39,434.7,12.78,652.04,19.18.95-24.91-2.04-36.73-13.28-59.4-215.13-6.33-430.25-12.65-645.38-18.98Z"/>
            <path class="cls-6" d="M923.9,3170.03c1.1-.03,119.59,2.15,119.26-15.7-.36-20.22-48.33-22.09-64.05-24.06-163.33-20.55-362.41-37.99-519.17-10.59-21.39,3.74-90.6,27.27-48.27,40.25,133.52,40.96,349.42,13.94,512.22,10.1Z"/>
          </g>
          <g>
            <path class="cls-2" d="M341.93,2364.87c-31.08,6.73-48.43,7.95-83.29,10.22,39.37,1.16,78.75,2.32,118.12,3.47,34.86-2.27,52.22-3.49,83.29-10.22-39.37-1.16-78.75-2.32-118.13-3.47Z"/>
            <path class="cls-4" d="M360.06,2376.82c46.44-.03,78.8-2.46,71.01-6.58-7.93-4.18-47.25-4.36-88.78-1.29-41.65,3.07-74.36,4.93-71.51,5.96,2.86,1.03,42.84,1.94,89.29,1.92Z"/>
          </g>
          <g>
            <path class="cls-4" d="M-81.53,2413.4c-34.79,22.74-42.37,56.63-51.32,91.3,39.37,1.16,78.75,2.32,118.12,3.47,8.95-34.67,16.52-68.56,51.32-91.3-39.37-1.16-78.75-2.32-118.12-3.47Z"/>
            <path class="cls-6" d="M-40.71,2489.21c37.46-17.26,58.16-47.04,48.61-63.41-9.49-16.28-49.92-15.98-87.98,3.21-38.17,19.24-54.95,53.38-44.95,67.64,10.09,14.38,46.84,9.82,84.32-7.44Z"/>
          </g>
          <g>
            <path class="cls-4" d="M258.64,2375.09c-127.36,7.17-239.54,8.16-273.36,133.09,39.37,1.16,78.75,2.32,118.12,3.47,33.82-124.93,146-125.92,273.36-133.09-39.37-1.16-78.75-2.32-118.12-3.47Z"/>
            <path class="cls-2" d="M88.5,2461.84c62.69-50.91,133.24-76.56,214.61-80.58,8.29-.41,17.05-1.29,25.24-3.49-45.26-3.02-93.39.1-137.42,3.09-68.54,4.65-198.7,21-194.4,103.88,2.86,55.18,74.63-8.81,91.98-22.89Z"/>
          </g>
          <g>
            <path class="cls-6" d="M313.07,2141.31c5.22,4.89,7.59,7.48,11.83,12.98,81.92,2.41,163.85,4.82,245.77,7.23-2.4-5.44-3.75-8-6.73-12.83-83.62-2.46-167.24-4.92-250.86-7.38Z"/>
            <path class="cls-4" d="M512.06,2157.86c69.13.2,76.85-3.95,20.95-8.25-59.25-4.56-120.92-7.88-180.3-4.3-35.63,2.14-40.76,6.55-16.43,8.45,57.64,4.51,117.41,3.93,175.79,4.1Z"/>
          </g>
          <g>
            <path class="cls-6" d="M-403.35,1632.61c-16.75,43.21-30.67,86.18-42.16,130.7,203.03,11.86,406.8,12.69,609.82,24.55,31.12-43.9,72.29-80.83,114.41-116.52-225.98-24.55-456.09-14.21-682.07-38.73Z"/>
            <path class="cls-4" d="M67.18,1765.56c41.86-2.6,107.91-2.24,141.94-32.2,18.24-16.06,30.84-37.01-1.61-48.08-85.14-29.05-192.93-30.69-284.4-33.67-90.41-2.95-198.75-11.01-278.54,16.23-30.37,10.37-108.19,65.3-74.99,87.94,29.86,20.36,108.28,13.25,159.33,14.26,112.74,2.24,228.07,2.36,338.26-4.48Z"/>
          </g>
          <g>
            <path class="cls-4" d="M104.38,1097.78c-200.47,113.85-359.19,259.7-466.28,447.8,245.54,36.49,500.43,14.07,746.25,49.14,278.2-179.38,592.37-313.39,891.82-462.47-390.6-11.49-781.19-22.97-1171.79-34.46Z"/>
            <path class="cls-2" d="M348.1,1518.7c143.48-22.03,275.09-68.7,404.37-130.27,82.59-39.34,263.77-103.54,286.32-184.62,25.13-90.36-319.4-88.41-375.6-88.27-202.58.5-422.59,14.51-609.57,81.91-112.42,40.52-216.43,93.28-295.88,177.47-35.22,37.33-90.46,95.5-87.38,140.97,3.25,48.07,138.68,42.58,179.61,42.59,166.58.08,336.39-14.94,498.13-39.78Z"/>
          </g>
          <g>
            <path class="cls-4" d="M-22.83,2732.23c108.42,89.2,236.4,157.55,337.76,253.51,195.69,5.76,391.38,11.51,587.08,17.27-188.6-105.45-403.53-166.45-598.78-261.19-108.69-3.2-217.37-6.39-326.06-9.59Z"/>
            <path class="cls-2" d="M716.42,2959.87c55.34-22.82-69.37-73.19-84.43-79.61-90.19-38.46-185.46-70.3-279.2-98.56-62.22-18.76-147.96-52.94-216.59-43.68-33.94,4.58-60.13,23.7-34.07,56.09,48.84,60.7,132.93,139.97,212.75,174.68,104.28,45.35,302.36,32,401.55-8.91Z"/>
          </g>
          <g>
            <path class="cls-6" d="M314.93,2985.74c33.81,38.19,56.22,72.35,73.09,118.46,161.36,4.75,322.71,9.49,484.07,14.24-23.32-50.71-72.79-86.81-120.01-119.84-145.72-4.29-291.43-8.57-437.15-12.86Z"/>
            <path class="cls-4" d="M724.21,3095.58c11.27-1.24,110.69-5.92,103.23-35.57-7.61-30.24-99.6-41.96-121.81-46.44-77.19-15.56-267.94-55.46-324.5-.63-21.29,20.64-10.56,69.54,16.39,83.27,75.52,38.47,236.19,9.35,326.7-.63Z"/>
          </g>
        </g>
        <g>
          <g>
            <path class="cls-6" d="M-363.6,177.99c-11.83,45.96-19.63,90.84-19.63,137.58,191.94,4.61,383.88,9.21,575.82,13.82,1.82-49.97,19.48-87.64,53.64-131.36-203.03-9.67-406.8-10.35-609.82-20.03Z"/>
            <path class="cls-4" d="M82.04,307.94c41.12-4.36,97.21-8.83,118.64-40.06,13.74-20.03,9.73-40.81-18.85-51.68-72.59-27.59-172.09-27.27-253.21-28.08-78.42-.78-178.94-3.4-242.75,25.01-29.67,13.21-103.56,73.25-53.52,94.76,37.8,16.25,107.22,10.92,155.71,11.11,98.27.39,200.03-1.09,293.98-11.06Z"/>
          </g>
          <g>
            <path class="cls-4" d="M406.8,496.95c29.13,34.85,26.74,87.03-2.77,122,78.75,1.89,157.5,3.78,236.25,5.67,29.13-34.51,29.48-84.7,12.3-121.77-81.92-1.97-163.85-3.93-245.77-5.9Z"/>
            <path class="cls-6" d="M591.26,609.32c59.87-9.17,101.14-62.28,35.79-90.57-40.39-17.49-139.86-33.94-166.63,5.92-13.94,20.76-57.46,75.64-38.78,88.71,27.17,19.02,118.92,3.71,169.63-4.06Z"/>
          </g>
          <g>
            <path class="cls-2" d="M-52.32,815.6c12.99,63.78,50.42,105.89,111.38,152.83,108.69,2.61,217.37,5.22,326.06,7.82-81.14-35.31-186.47-80.25-200.43-154.97-79-1.9-158.01-3.79-237.01-5.69Z"/>
            <path class="cls-4" d="M273.8,954.78c33.65-18.78-86.03-92.08-111.56-107.18-48.34-28.6-143.74-47.15-168.56,9.6-16.54,37.81,13.82,86.01,65.87,103.02,57.88,18.91,174.92,16.51,214.25-5.44Z"/>
          </g>
          <g>
            <path class="cls-2" d="M522.14,621.78c-32.99,27.89-50.09,34.96-98.31,46.97,39.37.94,78.75,1.89,118.12,2.83,48.22-12.01,65.32-19.08,98.31-46.97-39.37-.94-78.75-1.89-118.12-2.83Z"/>
            <path class="cls-6" d="M530.27,667.3c29.7-2.83,85.8-10.57,82.19-31.83-2.28-13.39-46.63-13.32-88.76,3.33-42.24,16.69-84.4,25.65-85.42,28.63-1.02,3.01,42.84,4.57,91.99-.12Z"/>
          </g>
          <g>
            <path class="cls-2" d="M404.02,618.95c-101.48,85.42-276.72,36.83-403.64,89.39,39.37.94,78.75,1.89,118.12,2.83,126.93-52.56,302.16-3.97,403.65-89.39-39.37-.94-78.75-1.89-118.12-2.83Z"/>
            <path class="cls-4" d="M141.19,691.35c93.85-14.62,243.13,6.74,320.33-38.48,15.99-9.37,25.76-30.34-.82-31.83-23.15-1.3-90.61,35.44-111.52,40.07-89.21,19.74-260.27-4.19-320.85,37.38-2.24,1.54-4.43,4.45-6.65,6.67,30.93,11.37,86.85-8.73,119.51-13.82Z"/>
          </g>
          <g>
            <path class="cls-2" d="M-383.23,315.57c7.36,97.91,219.11,102.59,314.76,107.09,137.62,6.48,311.67-6.33,434.61,46.82,87.7,2.1,175.41,4.21,263.11,6.31-129.31-92.95-394.63,23.46-436.66-146.41-191.94-4.61-383.88-9.21-575.82-13.82Z"/>
            <path class="cls-4" d="M504.96,448.62c-.16-9.01-79.93-12.46-110-14.15-84.49-4.76-157.6-19.75-231.17-47.63-83.77-31.73-169.63-69.2-270.13-63.29-30.97,1.82-191.36,36.97-122.51,72.51,77.08,39.79,215.54,28.35,308.77,32.08,87.41,3.49,174.67,9.18,258.64,27.57,49.87,10.92,166.7,9.9,166.4-7.09Z"/>
          </g>
          <g>
            <path class="cls-2" d="M-280,.36c-15.48,22.98-29.49,46.97-41.45,71.01,225.99,20,456.09,11.56,682.07,31.59,33.59-22.19,69.06-42.89,105.62-62.51C220.43,11.84-34.46,30.13-280,.36Z"/>
            <path class="cls-4" d="M254.5,86.99c31.39-.14,121.49,7.52,151.43-13.18,15.98-11.05,24.13-23.42-11.2-28.05-94.9-12.43-212.91-22.01-317.48-25.83-99.88-3.65-209.37-11.43-303.11,2.04-21.88,3.14-110.67,30.92-80.21,46.03,34.49,17.11,120.11,10.94,177.08,12.8,127.73,4.16,256.8,6.78,383.49,6.2Z"/>
          </g>
          <g>
            <path class="cls-6" d="M366.14,469.48c13.1,5.97,18.93,9.31,28.83,16.88,83.62,2.01,167.24,4.01,250.87,6.02-5.66-7.47-9.02-10.75-16.59-16.59-87.7-2.1-175.41-4.21-263.11-6.31Z"/>
            <path class="cls-4" d="M585.44,488.33c18.11.2,36.93.09,51.94-5.41-11.96-3.51-25.09-4.99-37.58-5.6-59.14-2.9-128.51-9.05-189.15-3.31-31.62,2.99-31.05,9.21-5.33,11.45,58.48,5.08,121.79,2.24,180.12,2.88Z"/>
          </g>
          <g>
            <path class="cls-6" d="M-50.94,782.82c-1.94,12.28-2.38,19.69-1.38,32.78,79,1.9,158.01,3.79,237.01,5.69-2.22-13.12-1.34-20.52.61-32.8-78.75-1.89-157.5-3.78-236.25-5.67Z"/>
            <path class="cls-4" d="M126.13,815.14c21.76-.39,41.64-2.27,57.53-11.87-8.54-6.65-20.52-9.63-32.72-10.78-48.73-4.61-113.03-11.59-164.66-1.32-39.04,7.76-49.71,19.2-26,22.65,52.17,7.59,112.67,2.28,165.85,1.32Z"/>
          </g>
          <g>
            <path class="cls-2" d="M469.92,1271.9c6.05,18.37,7.57,27.98,6.62,48.3,217.35,5.21,434.69,10.43,652.04,15.64.95-20.32-2.04-29.96-13.28-48.45-215.13-5.16-430.25-10.32-645.38-15.48Z"/>
            <path class="cls-6" d="M1005.81,1325.6c1.1-.02,119.59,1.75,119.26-12.8-.36-16.49-48.33-18.02-64.05-19.63-163.33-16.77-362.41-31-519.17-8.64-21.39,3.05-90.6,22.24-48.27,32.84,133.52,33.41,349.47,11.41,512.22,8.24Z"/>
          </g>
          <g>
            <path class="cls-2" d="M423.83,668.75c-31.08,5.49-48.43,6.48-83.29,8.34,39.37.94,78.75,1.89,118.12,2.83,34.86-1.85,52.22-2.85,83.29-8.34-39.37-.94-78.75-1.89-118.12-2.83Z"/>
            <path class="cls-4" d="M441.96,678.5c46.43-.02,78.8-2.01,71.01-5.37-7.93-3.41-47.25-3.55-88.78-1.06-41.65,2.51-74.36,4.02-71.51,4.86,2.85.84,42.84,1.58,89.29,1.56Z"/>
          </g>
          <g>
            <path class="cls-4" d="M.38,708.34c-34.79,18.55-42.37,46.2-51.32,74.48,39.37.94,78.75,1.89,118.12,2.83,8.95-28.28,16.52-55.93,51.32-74.48-39.37-.94-78.75-1.89-118.12-2.83Z"/>
            <path class="cls-6" d="M41.19,770.18c37.46-14.08,58.15-38.38,48.61-51.73-9.49-13.28-49.92-13.03-87.98,2.62-38.17,15.69-54.95,43.55-44.95,55.18,10.09,11.73,46.84,8.01,84.32-6.07Z"/>
          </g>
          <g>
            <path class="cls-4" d="M340.54,677.08c-127.36,5.85-239.54,6.66-273.36,108.57,39.37.94,78.75,1.89,118.12,2.83,33.82-101.91,146-102.72,273.36-108.57-39.37-.94-78.75-1.89-118.12-2.83Z"/>
            <path class="cls-2" d="M170.4,747.86c62.69-41.53,133.22-62.44,214.61-65.74,8.29-.34,17.05-1.06,25.24-2.85-45.26-2.46-93.39.08-137.42,2.52-68.54,3.8-198.7,17.13-194.4,84.74,2.86,45.02,74.63-7.18,91.98-18.68Z"/>
          </g>
          <g>
            <path class="cls-6" d="M394.97,486.36c5.22,3.99,7.59,6.1,11.83,10.59,81.92,1.97,163.85,3.93,245.77,5.9-2.4-4.44-3.75-6.53-6.73-10.47-83.62-2.01-167.24-4.01-250.87-6.02Z"/>
            <path class="cls-4" d="M593.96,499.87c69.14.16,76.86-3.22,20.95-6.73-59.25-3.72-120.92-6.43-180.3-3.51-35.63,1.75-40.76,5.34-16.43,6.89,57.64,3.68,117.41,3.21,175.79,3.35Z"/>
          </g>
          <g>
            <path class="cls-6" d="M-321.45,71.37c-16.75,35.25-30.67,70.31-42.16,106.63,203.03,9.67,406.8,10.36,609.82,20.03,31.12-35.81,72.29-65.94,114.41-95.06-225.98-20.03-456.09-11.6-682.07-31.59Z"/>
            <path class="cls-4" d="M149.08,179.83c41.86-2.12,107.91-1.83,141.94-26.27,18.24-13.1,30.84-30.19-1.61-39.22-85.14-23.7-192.94-25.04-284.4-27.47-90.42-2.41-198.75-8.98-278.54,13.24-30.37,8.46-108.19,53.27-74.99,71.74,29.86,16.61,108.27,10.81,159.33,11.64,112.74,1.83,228.07,1.92,338.26-3.66Z"/>
          </g>
          <g>
            <path class="cls-4" d="M186.28-364.95C-14.19-272.07-172.91-153.09-280,.36-34.46,30.13,220.43,11.84,466.25,40.45c278.2-146.34,592.37-255.66,891.82-377.29-390.6-9.37-781.19-18.74-1171.79-28.11Z"/>
            <path class="cls-2" d="M430-21.56c143.48-17.97,275.09-56.04,404.37-106.28,82.59-32.09,263.77-84.47,286.32-150.61,25.12-73.71-319.4-72.13-375.59-72.01-202.58.41-422.59,11.84-609.57,66.82C23.1-250.58-80.91-207.54-160.36-138.86c-35.22,30.45-90.46,77.91-87.38,115.01C-244.49,15.36-109.07,10.88-68.14,10.89c166.58.06,336.39-12.19,498.13-32.46Z"/>
          </g>
          <g>
            <path class="cls-4" d="M59.07,968.44c108.42,72.77,236.4,128.53,337.76,206.82,195.69,4.69,391.38,9.39,587.07,14.08-188.6-86.03-403.53-135.79-598.78-213.08-108.69-2.61-217.37-5.22-326.06-7.82Z"/>
            <path class="cls-2" d="M798.33,1154.15c55.34-18.62-69.37-59.71-84.44-64.95-90.19-31.38-185.46-57.35-279.2-80.41-62.22-15.3-147.96-43.19-216.59-35.64-33.94,3.73-60.13,19.34-34.07,45.76,48.84,49.52,132.93,114.19,212.75,142.51,104.28,37,302.36,26.11,401.55-7.27Z"/>
          </g>
          <g>
            <path class="cls-6" d="M396.83,1175.25c33.81,31.15,56.22,59.02,73.09,96.64,161.36,3.87,322.71,7.74,484.07,11.61-23.32-41.37-72.79-70.82-120.01-97.77-145.71-3.5-291.43-6.99-437.15-10.49Z"/>
            <path class="cls-4" d="M806.11,1264.86c11.27-1.01,110.69-4.83,103.23-29.01-7.61-24.67-99.6-34.23-121.81-37.88-77.19-12.69-267.94-45.25-324.5-.52-21.29,16.84-10.56,56.73,16.39,67.93,75.52,31.39,236.18,7.62,326.7-.52Z"/>
          </g>
        </g>
        <g>
          <g>
            <path class="cls-7" d="M39.59,1640.79c46.9,48.84,91.56,103.6,136.56,157.81-2.6-78.23-5.19-156.47-7.79-234.7-45-54.2-89.65-108.96-136.56-157.81,2.6,78.23,5.19,156.47,7.79,234.7Z"/>
            <path class="cls-5" d="M125.82,1529.76c-17.89-31.53-77.24-118.87-89.95-95.16-14.21,26.51,22.78,154.57,38.41,200.8,10.95,32.39,61.23,159.98,90.24,99.69,27.95-58.1-15.43-164.31-38.7-205.32Z"/>
          </g>
          <g>
            <path class="cls-5" d="M470.98,1778.04c32.46-67.03,32.41-142.31,34.14-228.21-.94-28.16-1.4-42.25-2.34-70.41-1.73,85.9-1.68,161.18-34.14,228.21.93,28.16,1.4,42.24,2.34,70.41Z"/>
            <path class="cls-4" d="M500.83,1567.78c-3.62,54.32-13.46,98.48-29.64,143.87-6.94,19.47,9.07,30.02,19.15,6.31,16.87-39.7,13.95-113.81,13.9-164.38-.07-61.79.95-51.07-3.4,14.2Z"/>
          </g>
          <g>
            <path class="cls-4" d="M405.43,1977.7c53.81-7.85,87.94-33.98,99.51-134.78,9.28-80.87,4.23-164.43,13.37-245.74-1.82-54.76-3.64-109.53-5.45-164.29-9.14,81.32-4.09,164.87-13.37,245.74-11.57,100.8-45.7,126.93-99.51,134.78,1.82,54.76,3.64,109.53,5.45,164.29Z"/>
            <path class="cls-5" d="M504.8,1600.34c-4.59,129.58-32.8,181.05-95.16,230.56-33.62,26.69,54.42,83.09,70.15,73.62,45.11-27.16,30.13-236.82,33.38-310.4,1.21-27.33,5.71-63.53.08-90.22-9.46,26.4-7.38,66.44-8.45,96.45Z"/>
          </g>
          <g>
            <path class="cls-5" d="M-315.88,1616.11c53.77-56.93,110.23-112.99,173.01-128.54,65.27-16.17,123.5,28.68,180.03,82.71-1.82-54.76-3.64-109.53-5.45-164.29-56.53-54.03-114.76-98.88-180.03-82.71-62.78,15.55-119.24,71.61-173.01,128.54,1.82,54.76,3.64,109.53,5.45,164.29Z"/>
            <path class="cls-4" d="M-82.36,1337.35c-72.89-36.04-173.37,26.91-230.23,123.34-36.68,62.2,80.45,39.5,86.97,38.4,40.84-6.86,81.73-18.21,122.91-15.41,37.79,2.57,76.48,17.24,112.13,25.2,27.07,6.05,26.8-21.92,15.04-52.2-23.42-60.34-71.72-101.97-106.82-119.33Z"/>
          </g>
          <g>
            <path class="cls-5" d="M176.18,1798.44c67.94,80.48,144.52,175.91,229.19,179.03-1.82-54.68-3.63-109.37-5.45-164.05-84.66-3.12-161.25-98.55-229.19-179.03,1.82,54.68,3.63,109.37,5.45,164.05Z"/>
            <path class="cls-7" d="M329.15,1801.82c-46.54-41.95-128.99-158.76-152.29-143.19-13.58,9.08,45.18,152.11,59.93,179.79,33.83,63.48,97.63,156.92,151.14,101.26,50.81-52.85-39.55-120.54-58.78-137.87Z"/>
          </g>
          <g>
            <path class="cls-4" d="M170.73,1634.35c69.76,82.48,213.61,267.34,300.19,143.76-.94-28.16-1.4-42.25-2.34-70.41-86.57,123.58-230.43-61.28-300.19-143.76.94,28.16,1.4,42.25,2.34,70.41Z"/>
            <path class="cls-5" d="M390.3,1747.87c-76.56-13.41-156.09-96.92-213.83-167.03-2.41-2.93-5.02-4.71-7.55-2.31,19.31,57.64,58.82,103.03,88.29,139.49,49.11,60.77,143.32,142.46,200.34,59.7,41.9-60.81-55.84-27.86-67.24-29.85Z"/>
          </g>
          <g>
            <path class="cls-5" d="M-68.1,1562c38.3,14.09,73.55,45.83,107.67,78.83-.94-28.16-1.4-42.25-2.34-70.41-34.13-33-69.37-64.74-107.67-78.83.94,28.16,1.4,42.25,2.34,70.41Z"/>
            <path class="cls-7" d="M3.22,1543.81c-19.58-20.39-49.93-54.61-70.88-43.66-7.04,3.68,4.68,31.51,27.47,62.51,19.85,27.01,51.87,62.2,71.36,54.88,17.61-6.61-18.28-63.66-27.95-73.73Z"/>
          </g>
        </g>
        <g>
          <g>
            <path class="cls-7" d="M-47.57,2027.39c10.46,47.3,44.27,82.45,83.33,106.22,90.9-77.99,181.8-155.99,272.7-233.98-48.51-15.61-74.39-49.51-99.6-92.26-85.48,73.34-170.95,146.68-256.43,220.03Z"/>
            <path class="cls-5" d="M250.96,1889.24c-7.47-22.21-25.23-83.01-59.77-63.57-71.41,40.17-142.79,129.55-190.74,199.27-14.98,21.77-29.16,52.16-9.78,73,21.47,23.08,57.12,5.1,79.88-7.25,49.41-26.81,206.14-124.95,180.41-201.45Z"/>
          </g>
          <g>
            <path class="cls-5" d="M35.8,2133.62c53.07,19.91,103,18.73,160.79,11.77,115.26-98.89,230.51-197.79,345.77-296.68-73.17,28.02-156.76,62.55-233.86,50.92-90.9,78-181.81,155.99-272.71,233.99Z"/>
            <path class="cls-7" d="M446.14,1888.99c-42.6,6.01-110.9,4.43-150.45,25.84-70.6,38.22-143.32,132.38-186.08,200.26-15.25,24.22-3.68,34.64,19.49,35.82,36.87,1.87,78.82-29.55,106.8-48.69,65.27-44.64,131.53-98.22,189.23-156.19,5.7-5.72,64.26-63.15,21-57.05Z"/>
          </g>
          <g>
            <path class="cls-7" d="M196.64,2145.39c62.8-10.33,124.98-25.16,187.55-37.55,150.42-129.06,300.83-258.13,451.25-387.19-97.81,42.33-194.37,88.03-293.01,128.03-115.27,98.9-230.53,197.8-345.8,296.71Z"/>
            <path class="cls-5" d="M727.79,1774.3c-64.54,14.87-141.02,50.06-198.19,88.46-86.94,58.41-174.67,162.99-238.23,234.87-23.86,26.98,2.97,27.43,20.21,25.15,44.93-5.95,93.21-46.09,127.66-71.18,84.3-61.38,168.02-130.8,244.9-204.27,5.34-5.1,87.21-83.07,43.65-73.03Z"/>
          </g>
          <g>
            <path class="cls-5" d="M113.27,1663.82c14.33,37.03,20.26,65.87,13.36,106.84,18.23-15.64,36.47-31.29,54.7-46.93-1.79-35.98-12.69-62.81-28.39-93.95-14.12,12.11-22.49,19.3-39.67,34.04Z"/>
            <path class="cls-4" d="M175.98,1701.43c1.06-23.91-7.27-53.53-25.09-65.28-8.87-5.85-10.79,19.77-15.87,53.36-5.08,33.58-9.81,63.05,6.21,62.58,15.98-.47,33.53-23.11,34.74-50.66Z"/>
          </g>
          <g>
            <path class="cls-5" d="M126.62,1770.7c-2.19,17.5-3.64,26.06-.92,46.12,20.9-17.93,41.8-35.86,62.69-53.79-5.5-17.68-5.81-24.72-7.07-39.27-18.24,15.65-36.47,31.29-54.71,46.94Z"/>
            <path class="cls-4" d="M181.61,1752.56c2.61-16.18,1.25-26.25-4.66-24.11-5.96,2.16-21.4,19.52-38.92,43.05-17.5,23.51-17.92,37.51,3.68,27.61,21.56-9.88,37.31-30.42,39.9-46.55Z"/>
          </g>
          <path class="cls-5" d="M468.2,2035.79c92.77-21.64,191.34-42.91,259.02,29.96,59.28-50.86,118.55-101.72,177.83-152.58-65.99-80.23-210.07-26.28-295.17,1.06-47.23,40.52-94.45,81.04-141.68,121.57Z"/>
          <g>
            <path class="cls-5" d="M384.2,2107.87c91.15-15.51,177.89-24.07,244.46,42.45,32.85-28.19,65.71-56.38,98.56-84.57-67.69-72.86-166.25-51.59-259.02-29.96-28,24.03-56,48.05-84,72.08Z"/>
            <path class="cls-7" d="M655.37,2032.13c-49.76-34.85-136.28-11.95-192.28,12.82-36.25,16.04-28.3,39.85,7.38,44.08,53.14,6.29,104.89,22.19,157.13,38.52,55.82,17.45,60.12-72.76,27.77-95.42Z"/>
          </g>
          <g>
            <path class="cls-4" d="M-31.35,1667.33c36.88,47.67,60.39,93.42,41.84,157.86-13.86,48.15-42.79,91.62-57.57,139.84,57.58-49.41,115.17-98.82,172.75-148.22-4.26-31.34,6.09-63.03,4.05-94.45-3.51-54.13-38.75-93.87-70.29-132.92-30.26,25.97-60.52,51.93-90.79,77.9Z"/>
            <path class="cls-5" d="M117.01,1766.99c24.97-63.94-8.71-140.8-60.56-161.45-32.7-13.02-19.72,114.05-23.44,136-6.84,40.24-19.61,76.71-34.83,115.58-8.07,20.62-23.94,58.11-12.31,64.07,28.78,14.77,113.58-109.24,131.14-154.2Z"/>
          </g>
          <g>
            <path class="cls-5" d="M-157.37,1650.09c48.75-41.19,87.59-17.75,126.1,17.08,30.22-25.93,60.44-51.86,90.66-77.79-38.52-34.84-77.36-58.27-126.1-17.08-30.22,25.93-60.44,51.86-90.66,77.79Z"/>
            <path class="cls-7" d="M5.58,1559.34c-25.75-21.56-57.21,1.05-79.55,19.5-19.41,16.03-39.91,33.32-38.04,39.25,4.83,15.27,67.5,17.25,89.05,20.08,50.11,6.58,58.5-53.74,28.54-78.82Z"/>
          </g>
          <g>
            <path class="cls-4" d="M-66.69,1572.29c81.92-62.76,142.98,30.63,179.93,91.45,17.17-14.74,25.54-21.92,39.66-34.03-39.04-59.31-98.21-153.99-180.68-90.8-15.56,13.35-23.35,20.03-38.91,33.38Z"/>
            <path class="cls-5" d="M89.93,1552.77c-33.67-37.05-70.64-49.08-118.38-12.83-16.27,12.35-13.69,4.07,9.76,4.34,55.35.63,98.07,63.84,131.59,95.29,12.39,11.63,19.91,9.63,22.88-4.03,5.54-25.47-33.1-68.73-45.86-82.76Z"/>
          </g>
          <g>
            <path class="cls-4" d="M-47.08,1965.09c-2.74,11.96-3.65,18.02-3.88,30.45,82.4-70.7,164.8-141.41,247.21-212.11-4-8.8-5.48-12.81-7.84-20.39-78.49,67.35-156.99,134.7-235.48,202.05Z"/>
            <path class="cls-5" d="M180.77,1787.43c18.38-23.33,15.38-28.9-10.43-8.33-63.43,50.55-124.26,108.54-183.51,163.46-13.7,12.7-28.18,26.15-36.3,41.85,16-7.59,28.48-17.85,42.81-29.08,63.22-49.53,137.27-104.23,187.43-167.9Z"/>
          </g>
          <g>
            <path class="cls-4" d="M-50.96,1995.55c-.15,8.29.07,12.49,1.33,21.04,84.56-72.55,169.12-145.11,253.68-217.66-3.59-6.55-5.13-9.63-7.8-15.49-82.4,70.71-164.81,141.41-247.21,212.11Z"/>
            <path class="cls-5" d="M188.64,1804.75c18.79-22.19,15.99-26.66-10.92-4.93-66.03,53.31-129.67,112.63-192.08,169.86-13.16,12.07-26.22,24.14-36.22,38.72,16.44-8,31.24-20.05,45.8-32.02,65.02-53.48,139.2-107.59,193.42-171.62Z"/>
          </g>
          <g>
            <path class="cls-4" d="M-49.63,2016.6c.57,3.9.94,5.86,1.84,9.83,85.4-73.28,170.8-146.55,256.2-219.83-1.85-3.14-2.72-4.67-4.36-7.66-84.56,72.55-169.12,145.11-253.68,217.66Z"/>
            <path class="cls-5" d="M194.26,1815.05c19.96-20.2,18.3-22.42-8.98.25-66.93,55.63-132.46,114.4-197.46,172.11-12.61,11.2-25.38,22.52-36.43,35.21,16.43-9.6,31.49-23.77,46.02-35.84,66.27-55.06,136.29-110.47,196.85-171.73Z"/>
          </g>
        </g>
        <g>
          <path class="cls-7" d="M-97.63,651.82c17.08-16.15,29.33-41.33,39.38-62.58,23-51.99,45.99-103.98,68.99-155.97-10.05,21.25-22.3,46.43-39.38,62.58-23,51.99-45.99,103.98-68.99,155.97Z"/>
          <g>
            <path class="cls-7" d="M204.03,882.71c29.89,38.23,75.61,55.48,121.14,60.23,48.35-109.31,96.7-218.63,145.05-327.94-50.54,6.67-88.56-12.86-129.79-40.67-45.47,102.79-90.93,205.59-136.4,308.38Z"/>
            <path class="cls-5" d="M413.83,630.24c-16.34-16.85-58.66-64.14-81.44-31.81-47.1,66.82-72.91,178.06-86.06,261.53-4.11,26.07-3.78,59.57,22.73,70.09,29.36,11.64,53.77-19.84,68.98-40.74,33.02-45.34,132.09-201.02,75.8-259.07Z"/>
          </g>
          <g>
            <path class="cls-5" d="M325.21,942.94c56.52-4.74,101.09-27.17,150.25-58.18,61.31-138.61,122.61-277.21,183.92-415.82-53.94,56.61-114.49,123.55-189.11,146.05-48.35,109.32-96.7,218.64-145.05,327.95Z"/>
            <path class="cls-7" d="M589.92,546.48c-35.86,23.66-98.2,51.47-124.65,87.72-47.22,64.72-72.17,180.85-81.43,260.43-3.3,28.39,11.65,32.85,33.08,23.99,34.1-14.1,58.38-60.41,75.37-89.66,39.63-68.24,76.29-144.96,103.33-221.99,2.67-7.61,30.71-84.51-5.7-60.49Z"/>
          </g>
          <path class="cls-7" d="M475.5,884.73c52.23-36.2,101.96-76.2,153.09-114.16,80.01-180.89,160.01-361.78,240.02-542.67-70,80.08-137.42,162.65-209.18,240.98-61.31,138.62-122.62,277.23-183.93,415.85Z"/>
          <g>
            <path class="cls-5" d="M192.08,485.65c28.94,27.3,46.77,50.79,58.24,90.74,9.7-21.93,19.4-43.85,29.1-65.78-17.16-31.72-38.6-51.28-66.24-72.66-7.51,16.98-11.96,27.04-21.1,47.7Z"/>
            <path class="cls-4" d="M264.95,492.77c-9.38-22.04-29.7-45.21-50.87-48.19-10.53-1.48-1.19,22.47,8.74,54.96,9.93,32.48,18.4,61.12,32.66,53.84,14.22-7.26,20.28-35.21,9.47-60.61Z"/>
          </g>
          <g>
            <path class="cls-5" d="M250.33,576.43c5.59,16.73,7.98,25.08,19.11,42.03,11.12-25.13,22.23-50.26,33.35-75.4-12.61-13.61-15.94-19.83-23.36-32.42-9.7,21.93-19.4,43.86-29.1,65.79Z"/>
            <path class="cls-4" d="M292.13,536.52c-4.64-15.72-10.22-24.23-14.63-19.77-4.44,4.5-10.89,26.78-16.53,55.52-5.64,28.72.04,41.53,15.26,23.35,15.19-18.15,20.53-43.42,15.9-59.1Z"/>
          </g>
          <g>
            <path class="cls-4" d="M63.04,550.72c53.9,27.25,94.9,58.49,106.01,124.6,8.3,49.4.97,101.02,8.48,150.88,30.63-69.25,61.26-138.5,91.89-207.74-17.39-26.48-21.75-59.51-37.17-87.01-26.57-47.37-75.56-68.16-120.91-89.92-16.1,36.39-32.19,72.79-48.29,109.18Z"/>
            <path class="cls-5" d="M240.05,577.2c-5.09-68.41-68.73-123.38-124.46-119.84-35.15,2.24,31.5,111.4,37.62,132.81,11.22,39.26,15.45,77.64,18.52,119.25,1.63,22.07,3.51,62.7,16.58,63.11,32.37,1.01,55.33-147.23,51.74-195.33Z"/>
          </g>
          <g>
            <path class="cls-5" d="M-58.18,589.08c26.2-58.05,71.4-53.51,121.23-38.55,16.07-36.34,32.15-72.68,48.22-109.02-49.83-14.97-95.02-19.5-121.23,38.55-16.07,36.34-32.15,72.68-48.22,109.02Z"/>
            <path class="cls-7" d="M49.7,437.42c-32.57-8.45-51.2,25.44-63.39,51.65-10.59,22.78-21.63,47.17-17.38,51.71,10.96,11.72,68.39-13.32,89.07-19.99,48.08-15.51,29.58-73.55-8.3-83.38Z"/>
          </g>
          <g>
            <path class="cls-4" d="M-9.95,480.04c46.83-91.72,142.32-33.54,201.97,5.56,9.14-20.65,13.59-30.72,21.1-47.7-60.88-36.83-155.22-96.99-202.37-4.65-8.28,18.72-12.42,28.07-20.7,46.79Z"/>
            <path class="cls-5" d="M123.01,395.39c-46.41-19.04-84.99-14.08-112.42,39.08-9.35,18.12-10.6,9.53,10.69-.26,50.24-23.12,116.13,15.67,159.99,29.71,16.21,5.19,22.14.17,18.91-13.44-6.01-25.37-59.59-47.88-77.17-55.09Z"/>
          </g>
          <g>
            <path class="cls-4" d="M177.55,826.26c2.69,11.97,4.5,17.83,9.66,29.15,43.83-99.1,87.66-198.19,131.49-297.29-7.42-6.23-10.49-9.22-15.89-15.05-41.75,94.4-83.5,188.79-125.25,283.19Z"/>
            <path class="cls-5" d="M306.45,568.36c6.51-28.92,1.39-32.67-13.01-3.06-35.41,72.78-65.27,151.16-95.01,226.1-6.88,17.32-14.13,35.66-14.69,53.31,11.16-13.7,17.99-28.3,26.08-44.57,35.66-71.77,78.87-152.85,96.63-231.79Z"/>
          </g>
          <g>
            <path class="cls-4" d="M187.21,855.42c3.44,7.55,5.46,11.24,10.29,18.43,44.98-101.69,89.95-203.38,134.93-305.07-6.07-4.37-8.79-6.5-13.73-10.65-43.83,99.1-87.66,198.19-131.49,297.29Z"/>
            <path class="cls-5" d="M321.04,580.63c7.37-28.08,2.92-30.91-11.99.22-36.57,76.38-68.38,157.17-99.98,235.55-6.66,16.53-13.24,33.01-15.97,50.45,11.39-14.26,19.54-31.47,27.51-48.51,35.58-76.11,79.16-156.7,100.43-237.71Z"/>
          </g>
          <g>
            <path class="cls-4" d="M197.51,873.85c2.2,3.28,3.38,4.89,5.91,8.08,45.42-102.7,90.85-205.4,136.27-308.1-3.03-2.05-4.48-3.05-7.25-5.05-44.98,101.69-89.95,203.38-134.93,305.07Z"/>
            <path class="cls-5" d="M330.56,587.53c9.29-26.78,6.83-28.07-8,4.07-36.38,78.87-70.14,159.97-103.87,239.88-6.55,15.51-13.18,31.19-17.67,47.38,10.68-15.69,18.16-34.94,26.06-52.05,36.03-78.06,75.29-158.06,103.48-239.28Z"/>
          </g>
        </g>
        <g>
          <g>
            <path class="cls-4" d="M489.36,2349.47c-10.46,50.65-29.67,76.61-76.75,103.67,56.99,3.3,113.98,6.6,170.97,9.9,47.08-27.07,66.28-53.03,76.74-103.67-56.99-3.3-113.98-6.6-170.97-9.9Z"/>
            <path class="cls-5" d="M606.45,2439.7c23.24-12.51,68.19-57.74,35.14-77.67-30.87-18.62-95.86,11.79-128.94,26.84-16.46,7.49-88.39,44.6-53.43,61.91,37.11,18.37,111.07,8.4,147.23-11.07Z"/>
          </g>
          <g>
            <path class="cls-5" d="M341.15,2476.53c-53.69,11.26-108,19.2-161.7,30.46,56.99,3.3,113.98,6.6,170.97,9.9,53.69-11.26,108-19.19,161.7-30.46-56.99-3.3-113.98-6.6-170.97-9.9Z"/>
            <path class="cls-7" d="M387.85,2506.1c26.19-2.96,102.19-19.89,102.19-19.89-1.42-4.75-108.43-1.83-159.2.76-30.08,1.54-80.81-2.24-108.17,14.73,1.91,1.65,3.97,3.99,5.74,4.94,34.04,18.3,110.69,4.96,159.44-.55Z"/>
          </g>
          <g>
            <path class="cls-7" d="M66.7,2737.45c21.17,10.29,49.16,12.93,72.68,14.88,56.99,3.3,113.98,6.6,170.97,9.9-23.52-1.95-51.51-4.59-72.68-14.88-56.99-3.3-113.98-6.6-170.97-9.9Z"/>
            <path class="cls-5" d="M273.22,2758.7c.03-.1-25.52-8.33-52.43-11.67-34.08-4.22-70.69-3.57-104.41-1.03-4.09.31-8.39.85-12.59,1.27,21.39,4.85,46.23,5.03,67.67,6.54,33.48,2.35,101.75,4.88,101.75,4.88Z"/>
          </g>
          <g>
            <path class="cls-7" d="M-45.48,3099.31c-25.57,41.21-25.87,89.86-14.45,133.98,119.83,6.94,239.65,13.88,359.47,20.81-23.92-44.8-18.8-87.07-6.99-135.22-112.68-6.52-225.36-13.05-338.03-19.57Z"/>
            <path class="cls-5" d="M265.52,3206.84c10.17-21.12,39.94-77.08,1.54-87.04-79.37-20.6-193.14-5.84-276.35,11.01-25.98,5.27-57.43,17.26-58.08,45.65-.72,31.44,37.45,43.21,62.44,50.11,54.23,14.96,235.42,53.02,270.45-19.73Z"/>
          </g>
          <g>
            <path class="cls-5" d="M-59.91,3233.33c24.19,51.05,60.86,84.78,107.23,119.8,151.93,8.8,303.87,17.59,455.8,26.39-72.14-30.54-156.32-63.64-203.55-125.38-119.83-6.94-239.66-13.88-359.49-20.81Z"/>
            <path class="cls-7" d="M405.85,3341.81c-34.79-25.18-82.74-73.61-126.11-85.62-77.43-21.44-195.51-4.18-273.69,14.95-27.89,6.83-26.87,22.33-11.05,39.22,25.17,26.87,77.26,33.36,110.74,38.99,78.09,13.14,163.15,20.55,245.13,18.88,8.09-.16,90.31-.85,54.98-26.42Z"/>
          </g>
          <g>
            <path class="cls-7" d="M47.36,3353.16c52.32,36.07,107.35,68.48,160.94,102.91,198.28,11.48,396.57,22.96,594.85,34.44-99.84-37.33-201.14-71.38-299.96-110.96-151.95-8.8-303.89-17.59-455.84-26.39Z"/>
            <path class="cls-5" d="M688.32,3454.49c-56.75-34.01-136.28-61.71-204.19-73.71-103.28-18.26-239.43-3.91-335.34,3.69-36,2.85-17.05,21.75-3.07,32.05,36.43,26.84,99.17,31.44,141.46,37.29,103.46,14.3,212.14,22.42,318.73,22.91,7.4.03,120.73.74,82.42-22.22Z"/>
          </g>
          <g>
            <path class="cls-5" d="M324.31,2949.61c-15.61,36.51-31.52,61.33-65.14,85.97,24.04,1.39,48.07,2.78,72.11,4.18,23.88-27.07,34.82-53.89,45.32-87.12-18.61-1.08-29.65-1.72-52.29-3.03Z"/>
            <path class="cls-4" d="M343.03,3020.04c17.48-16.44,32.22-43.48,27.64-64.25-2.28-10.34-21.58,6.73-48.71,27.33-27.13,20.59-51.14,38.49-39.31,49.24,11.8,10.73,40.24,6.62,60.38-12.32Z"/>
          </g>
          <g>
            <path class="cls-5" d="M259.14,3035.61c-13.81,11.05-20.84,16.19-32.91,32.49,27.55,1.6,55.1,3.19,82.64,4.78,8.42-16.5,13.12-21.78,22.39-33.1-24.04-1.39-48.08-2.78-72.12-4.17Z"/>
            <path class="cls-4" d="M311.31,3060.66c13.19-9.81,19.25-17.99,13.51-20.54-5.79-2.57-29.02-.8-58.05,3.96-29.02,4.77-39.11,14.53-16.67,22.37,22.39,7.83,48.06,3.99,61.21-5.8Z"/>
          </g>
          <g>
            <path class="cls-5" d="M319.02,3462.5c81.75,48.7,167.41,101.68,165.05,200.88,78.14,4.52,156.28,9.05,234.41,13.57,8.72-103.31-132.47-164.34-212.7-203.64-62.26-3.6-124.51-7.21-186.77-10.81Z"/>
            <path class="cls-4" d="M677.84,3602.33c-17.17-66.05-123.78-106.63-185.06-126.14-31.61-10.07-74.99-6.34-66.73,34.38,10.56,52.01,64.48,107.24,105.29,137.59,39.06,29.05,165.86,28.66,146.5-45.83Z"/>
          </g>
          <g>
            <path class="cls-5" d="M208.28,3456.09c76.31,51.99,144.58,105.9,145.86,199.77,43.31,2.51,86.62,5.02,129.93,7.52,2.36-99.2-83.3-152.18-165.05-200.88-36.91-2.14-73.82-4.27-110.74-6.41Z"/>
            <path class="cls-7" d="M455.99,3589.48c-11.36-59.48-89.51-102.96-147.05-123.94-37.25-13.59-48.19,9.02-25.53,36.77,33.76,41.32,59.8,88.57,85.9,136.47,27.89,51.19,94.06-10.62,86.68-49.29Z"/>
          </g>
          <g>
            <path class="cls-4" d="M217.99,2851.98c-6.85,59.77-21.97,108.9-80.36,142.33-43.63,24.98-94.8,36.16-139.14,60.56,75.91,4.39,151.81,8.79,227.72,13.18,18.87-25.45,48.46-41.05,68.97-65.02,35.34-41.3,37.83-94.25,42.49-144.13-39.89-2.31-79.79-4.62-119.68-6.93Z"/>
            <path class="cls-5" d="M254.82,3026.29c62.65-28.62,92.22-107.14,69.43-157.87-14.37-31.99-93.92,68.25-111.95,81.42-33.06,24.16-67.73,41.5-105.85,58.88-20.22,9.22-57.83,25.15-53.65,37.48,10.34,30.54,157.97.21,202.02-19.91Z"/>
          </g>
          <g>
            <path class="cls-5" d="M230.71,2509.97c-62.35,17.01-127.18,40.17-144.46,104.75-10.47,39.13-11.74,102.88,31.7,125.67,39.89,2.31,79.78,4.62,119.68,6.93-43.44-22.79-42.17-86.55-31.7-125.67,17.28-64.58,82.11-87.74,144.46-104.75-39.89-2.31-79.78-4.62-119.68-6.93Z"/>
            <path class="cls-4" d="M193.39,2689.89c2.42-88.08,132.14-162.81,134.22-171.35,1.4-5.76-147.01,19.6-171.55,30.81-65.41,29.9-118.27,149.17-23.2,185,60.52,22.8,59.2,3.96,60.53-44.46Z"/>
          </g>
          <g>
            <path class="cls-5" d="M139.55,2752.34c63.81,4.18,75.31,47.9,78.61,99.59,39.84,2.31,79.67,4.61,119.51,6.92-3.29-51.69-14.8-95.41-78.61-99.59-39.84-2.31-79.67-4.61-119.51-6.92Z"/>
            <path class="cls-7" d="M320.04,2800.01c-3.41-33.31-41.82-38.86-70.76-41.08-25.15-1.93-51.97-3.71-54.77,1.84-7.21,14.31,36.41,59.13,49.9,76.08,31.39,39.43,79.59,1.92,75.63-36.84Z"/>
          </g>
          <g>
            <path class="cls-4" d="M259.08,2759.26c102.72,11.66,81.25,121,65.25,190.27,22.64,1.31,33.67,1.95,52.28,3.03,13.44-69.63,37.18-178.59-66.24-190.32-20.52-1.19-30.77-1.78-51.29-2.97Z"/>
            <path class="cls-5" d="M385.21,2853.7c1.73-49.92-16.4-84.16-76.04-91.19-20.33-2.4-12.68-6.56,3.98,9.88,39.3,38.78,25.77,113.75,27.85,159.55.77,16.93,7.56,20.7,19.25,12.95,21.79-14.46,24.3-72.28,24.95-91.19Z"/>
          </g>
          <g>
            <path class="cls-5" d="M179.37,2507c-73.38,19.54-122.52,41.43-146.07,111.85,20.52,1.19,30.77,1.78,51.29,2.97,23.55-70.43,72.68-92.32,146.07-111.85-20.52-1.19-30.77-1.78-51.29-2.97Z"/>
            <path class="cls-4" d="M106.19,2568.63c32.11-28.37,113.79-57.77,113.79-57.77-.06-.86-62.95,6.34-85.52,12.83-35.12,10.1-93.78,36.41-86.26,81.7,6.79,40.84,50.52-30.17,57.98-36.77Z"/>
          </g>
          <g>
            <path class="cls-5" d="M33.29,2618.9c-3.92,21.2-4.76,45.89-.91,67.15,20.52,1.19,30.77,1.78,51.29,2.97-3.85-21.26-3.01-45.94.91-67.15-20.52-1.19-30.77-1.78-51.29-2.97Z"/>
            <path class="cls-7" d="M77.73,2670.85c4.76-17.73,6.73-41.69,1.01-47.56-5.77-5.92-23.91,1.32-38.37,16.41-14.45,15.09-13.18,33.6,2.65,43.15,15.72,9.48,29.96,5.68,34.71-12Z"/>
          </g>
          <g>
            <path class="cls-5" d="M32.38,2686.06c5.99,33.3,14.38,41.03,34.26,51.38,20.52,1.19,30.77,1.78,51.29,2.97-19.88-10.35-28.27-18.07-34.26-51.37-20.52-1.19-30.77-1.78-51.29-2.97Z"/>
            <path class="cls-7" d="M99.62,2729.92c-6.28-11.28-13.17-32.77-21.09-39.25-7.99-6.53-23.16,2.92-31,15.47-7.84,12.55,4.56,24.49,26.85,29.96,22.11,5.42,31.51,5.06,25.24-6.19Z"/>
          </g>
          <g>
            <path class="cls-4" d="M412.58,2453.16c-10.17,4.82-15.57,6.96-26.83,10.84,56.99,3.3,113.98,6.6,170.97,9.9,11.25-3.89,16.66-6.02,26.83-10.84-56.99-3.3-113.98-6.6-170.97-9.9Z"/>
            <path class="cls-5" d="M552.42,2469.98c26.83-1.62,32.49-5.72,12.16-7.69-41.54-4.03-85.75-2.73-126.8-4.15-13.53-.47-27.66-.17-41.36,1.96,8.74,4.47,19.42,5.3,28.96,5.38,37.97.33,85.35,7.03,127.04,4.51Z"/>
          </g>
          <g>
            <path class="cls-4" d="M385.75,2464.01c-16.88,5.83-25.93,8.22-44.58,12.52,56.99,3.3,113.98,6.6,170.97,9.9,18.65-4.31,27.7-6.69,44.58-12.52-56.99-3.3-113.98-6.6-170.97-9.9Z"/>
            <path class="cls-5" d="M513.6,2482.12c32.12-2.03,42.75-6.85,23.74-8.94-42.57-4.66-88.26-2.77-130.94-3.62-15.63-.31-31.77.25-47.52,2.56,4.7,6.63,14.29,6.42,23.24,5.78,35.08-2.48,88.27,6.94,131.47,4.21Z"/>
          </g>
          <g>
            <path class="cls-4" d="M-1.55,3054.92c-10.33,6.69-15.22,10.41-24.08,19.18,108.62,6.29,217.25,12.58,325.87,18.87,3.28-9.09,5.02-13,8.63-20.08-103.47-5.99-206.95-11.98-310.42-17.97Z"/>
            <path class="cls-5" d="M286.32,3085.12c29.51-4.02,31.25-10.1-1.66-13.2-80.91-7.62-165.14-8.11-246.1-9.69-18.71-.37-38.52-.74-55.34,4.91,16.8,5.63,32.94,6.9,51.08,8.76,80.04,8.21,171.48,20.21,252.02,9.22Z"/>
          </g>
          <g>
            <path class="cls-4" d="M-25.65,3074.1c-5.91,5.84-8.68,9.02-13.76,16.03,111.47,6.45,222.93,12.91,334.4,19.36,2-7.19,3.05-10.46,5.24-16.52-108.63-6.29-217.25-12.58-325.88-18.87Z"/>
            <path class="cls-5" d="M279.86,3103.01c29.02-2.92,30.13-8.07-4.39-11.1-84.7-7.44-171.89-8.91-256.73-11.03-17.89-.45-35.71-.82-53.09,2.72,17.4,5.64,36.45,7.24,55.29,8.72,84.09,6.62,175.21,19.13,258.93,10.7Z"/>
          </g>
          <g>
            <path class="cls-4" d="M-39.41,3090.14c-2.32,3.2-3.43,4.86-5.55,8.33,112.58,6.52,225.15,13.04,337.73,19.55.87-3.54,1.31-5.24,2.23-8.52-111.47-6.45-222.94-12.91-334.4-19.36Z"/>
            <path class="cls-5" d="M276.68,3114.29c28.46-.68,28.82-3.43-6.63-6.04-86.97-6.4-175.14-9.58-262.17-13.14-16.89-.69-33.97-1.41-50.79.06,18.51,4.48,39.24,4.74,58.11,6.13,86.09,6.35,175.13,15.05,261.47,12.99Z"/>
          </g>
        </g>
        <g>
          <g>
            <path class="cls-5" d="M-143.13,60.42c2.35,40.13,22.04,72.46,40.56,100.49,160.83-19.85,321.33-44.84,482.16-64.69-14.77-33.92-25.14-64.96-30.04-104.41C185.32,14.67,21.1,37.54-143.13,60.42Z"/>
            <path class="cls-6" d="M138.68,127.98c15.05-2.43,236.81-33.55,224.52-71.93-6.43-20.07-31.26-22.73-46.31-25.11-70.34-11.15-143.35-3.61-213.53.69-68.34,4.19-142.2,4.72-209.13,29.26-14.64,5.37-38.63,16.87-27.32,44.33,11.93,28.96,38.88,34.81,60.72,37.67,69.68,9.11,142.22-3.8,211.05-14.89Z"/>
          </g>
          <g>
            <path class="cls-5" d="M-102.21,161.4c50.73,70.56,115.92,120.2,175.47,174.04,140.73-8.52,280.6-39.34,421.33-47.87-38.56-63.35-80.7-122.27-114.74-190.82-160.8,19.82-321.26,44.83-482.06,64.65Z"/>
            <path class="cls-1" d="M283.55,310.52c12.27-2.2,211.46-28.22,165-95.92-19.09-27.83-45.98-42.25-72.67-50.99-75.01-24.55-155.41-24.1-231.48-24.77-41.7-.37-83.93.96-125.73,6.5-22.13,2.93-55.83,3.79-75.57,20.82-28.72,24.76,5.6,55.22,23.13,72.08,94.37,90.7,208.59,91.78,317.31,72.29Z"/>
          </g>
          <g>
            <path class="cls-5" d="M73.29,335.47c10.09,9.21,15.09,13.82,24.8,23.08,137.22-7.6,273.6-38.34,410.82-45.94-5.46-9.97-8.34-14.97-14.31-25-140.72,8.52-280.59,39.34-421.31,47.86Z"/>
            <path class="cls-6" d="M303.8,335.41c56.25-7.1,112.79-13.79,168.95-23.43,9.41-1.62,30.79-9.01,30.79-9.01-.17-2.13-26.29-4.32-38.64-4.07-60.1,1.24-120.32,8.1-180.17,13.93-58.32,5.68-117.19,10.35-175.3,20.64-7.13,1.26-28.67,6.38-25.23,12.04,5.95,9.8,30.71,7.18,45.08,6.85,58.24-1.32,116.63-9.64,174.52-16.94Z"/>
          </g>
          <path class="cls-1" d="M-92.19,708.72c-6.18,7.77-8.68,12.15-12.06,22.24,32.05-3.93,64.09-8.03,96.13-11.96,5.09-9.49,8.76-13.47,17.83-20.32-33.99,2.83-67.9,7.2-101.89,10.03Z"/>
          <g>
            <path class="cls-6" d="M98.09,358.56c38.92,37.92,86.3,81.45,106.92,144.31,115.39-11.52,230.29-31.94,345.69-43.2,4.37-55.7-19.62-104.55-41.79-147.05-137.22,7.6-273.6,38.34-410.82,45.94Z"/>
            <path class="cls-1" d="M378.09,480.46c14.15-2.53,182.08-20.79,167.97-76.99-6.31-25.12-29.3-34.02-46.11-39.88-61.37-21.42-128.62-19.67-190.85-20.46-36.56-.46-73.66.37-110.36,4.86-16.28,1.99-45.03.87-59.5,14.99-20.14,19.64,3.64,41.02,16.75,56.8,65.58,78.96,139.55,75.44,222.11,60.68Z"/>
          </g>
          <g>
            <g>
              <path class="cls-1" d="M205.02,502.9c50.23,195.63-233.27,129.95-297.17,205.77,23.53-1.96,47.03-4.6,70.54-7.04,38.14-32.22,90.47-33.83,133.53-38.72,48.09-5.47,96.33-8.62,144.25-16.77,68.09-11.58,201.21-42.52,197.6-174.58-82.88,10.61-165.75,22.97-248.76,31.35Z"/>
              <path class="cls-6" d="M-59.53,704.34c78.26-33.75,160.07-40.07,241.66-48.57,43.6-4.54,108.92-1.59,146.56-39.21,35.32-35.3,3.89-80.71-23.63-101.4-25.48-19.15-63.5-33.26-78.1,11.21-6.77,20.62-7.71,42.31-18.11,60.98-17.72,31.83-48.1,43.61-73.94,51.5-56.82,17.35-124.18,12.59-180.72,41.76-7.33,3.78-36.83,33.69-13.72,23.73Z"/>
            </g>
            <g>
              <path class="cls-6" d="M453.78,471.54c3.61,132.06-129.51,163-197.6,174.58-47.92,8.15-96.16,11.3-144.25,16.77-43.06,4.9-95.39,6.5-133.53,38.72,15.19-1.56,22.52-2.3,31.38-2.98,43.02-32.52,101.41-31.04,148.87-34.92,52-4.26,104.11-6.92,155.9-15.11,80.69-12.75,222.86-45.47,236.17-188.92-32.34,3.2-64.64,7.74-96.92,11.85Z"/>
              <path class="cls-1" d="M-2.21,698.57c65.45-18.31,156.85-34.03,234.15-40.52,65.71-5.51,134.75-11.93,197.32-44.27,32.64-16.87,96.44-65.34,83.98-126.64-7.83-38.5-30.53-12.82-40.89,6.03-14.65,26.65-26.16,52.62-45.28,73.9-37.33,41.53-84.94,59.36-129.98,70.67-77.15,19.37-158.82,16.9-237.64,33.41-21.06,4.41-49.39,7.89-66.2,28.51,1.64.61,3.06-.68,4.53-1.09Z"/>
            </g>
          </g>
          <g>
            <path class="cls-6" d="M-99.64,818.58c25.48,73.38,71.33,119.7,115.9,168.99,49.58-6.9,99.16-13.81,148.74-20.71-57.01-40.39-134.41-80.4-168.92-161.61-31.91,4.44-63.82,8.89-95.73,13.33Z"/>
            <path class="cls-1" d="M89.74,976.43c40.23-15.67,26.31-42.36-2.67-65.8-41.76-33.77-90.09-60.3-134.85-88.22-11.51-7.18-28.43-14.88-35.25,5.18-8.22,24.15,14.27,57.2,23.81,71.33,34.21,50.71,99.46,96.79,148.96,77.51Z"/>
          </g>
          <g>
            <path class="cls-5" d="M16.29,987.59c9.2,10.27,13.77,15.42,22.54,25.98,53.1-7.4,106.2-14.79,159.3-22.18-12.86-9.99-19.57-14.84-33.09-24.51-49.59,6.91-99.17,13.81-148.75,20.72Z"/>
            <path class="cls-6" d="M118.32,1002.35c10.5-1.7,68.35-17.13,67.23-20.53-3.32-10.12-64.95-5.2-93.62-3.25-6.66.45-72.59,8.75-65.7,20.25,12.63,21.05,66.42,7.7,92.09,3.54Z"/>
          </g>
          <g>
            <path class="cls-5" d="M-66.58,1465.86c-4.75,11.82-6.67,18.04-9.22,31.35,81.59-11.36,163.18-22.72,244.77-34.09,1.64-13.18,2.94-19.32,6.24-30.94-80.6,11.22-161.2,22.45-241.79,33.67Z"/>
            <path class="cls-6" d="M46.84,1479.97c33.04-5.05,66.84-9.69,99.7-18.52,8.6-2.31,24.33-9.56,24.35-10.74.03-1.94-13.57-5.24-20.98-5.75-31.87-2.21-64.67,2.67-96.25,5.62-32.34,3.02-65.76,5.17-97.83,13.7-9.45,2.52-26.45,8.14-27.09,14.77-1.56,16.24,100.75,3.57,118.11.92Z"/>
          </g>
          <g>
            <path class="cls-5" d="M-75.8,1497.22c-3.39,17.74-4.1,27.28-2.62,48.31,82.11-11.44,164.23-22.87,246.34-34.31-1.47-21.02-1.13-30.51,1.06-48.09-81.59,11.36-163.18,22.73-244.77,34.09Z"/>
            <path class="cls-6" d="M44.96,1528.07c32.74-5.31,67.31-9.75,99.61-21.44,8.73-3.16,22.75-10.52,22.66-15.02-.09-4.69-13.95-9.43-22.41-10.68-32.48-4.78-66.51-.67-98.73,1.57-21.18,1.48-121.96-.62-124.52,34.73-2.44,33.64,111.09,12.82,123.39,10.83Z"/>
          </g>
          <g>
            <path class="cls-1" d="M38.83,1013.58c28.58,35.81,50.97,70.29,65.63,120.57,62.93-8.76,125.86-17.53,188.79-26.29-18.49-55.04-58.86-87.54-94.78-116.51-53.22,7.41-106.43,14.82-159.65,22.23Z"/>
            <path class="cls-6" d="M198.82,1120.24c7.8-2.1,98.34-24.19,68.03-62.43-34.66-43.73-100.39-45.89-142.7-49.97-30.05-2.9-87.83-4.23-50.29,53.8,33.78,52.22,75.06,72.05,124.96,58.6Z"/>
          </g>
          <g>
            <g>
              <path class="cls-5" d="M104.47,1134.17c9.97,55.38,5.78,94.5-17.81,140.92,46.78-6.51,93.56-13.03,140.34-19.54,20.49-43.79,21.25-91.26,9.91-139.82-44.15,6.15-88.29,12.3-132.43,18.44Z"/>
              <path class="cls-6" d="M144.99,1266.43c27.1-5.76,88.92-20.24,96.84-57.91,7.38-35.13-61.36-67.4-79.39-74.36-43.14-16.66-47.92,17.03-52.46,68.03-4.62,51.96-7.02,73.18,35.01,64.24Z"/>
            </g>
            <g>
              <path class="cls-6" d="M86.65,1275.11c-46.41,71.69-114.32,108.86-153.19,190.64,57.23-7.97,114.46-15.94,171.69-23.91,29.15-76.72,85.64-117.38,121.83-186.27-46.78,6.51-93.56,13.03-140.34,19.54Z"/>
              <path class="cls-5" d="M3.99,1454.8c48.73-16.83,104.63-41.77,143.3-89.06,22.98-28.1,15.29-68.05-8.97-87.97-35.85-29.44-95.3,53.74-120.48,78.85-15.18,15.15-56.13,46.7-56.1,78.24.03,29.58,28.45,24.7,42.25,19.94Z"/>
            </g>
            <g>
              <path class="cls-6" d="M236.91,1115.73c35.46,160.51-86.78,208.42-131.76,326.15,23.36-3.25,46.73-6.51,70.09-9.76,40.76-117.76,152.7-169.17,118.04-324.24-18.79,2.62-37.58,5.23-56.36,7.85Z"/>
              <path class="cls-1" d="M148.75,1434.08c33.17-25.84,62.12-75.45,90.43-112.47,36.98-48.35,66.96-118.06,36.62-187.79-11.95-27.46-20.21-24.61-22.81,4.1-5.17,57.1-13.67,101.46-40.46,144.02-21.54,34.22-61.69,69.34-74.76,115.45-3.52,12.42-6.58,50.36,10.98,36.68Z"/>
            </g>
          </g>
        </g>
        <g>
          <g>
            <path class="cls-1" d="M-34.9,2118.95c2.38,16.46,4.98,24.62,13.91,40.7,49.79-60.76,99.58-121.53,149.37-182.29-8.93-16.09-11.52-24.24-13.91-40.71-49.79,60.76-99.58,121.53-149.37,182.29Z"/>
            <path class="cls-5" d="M53.68,2068.17c23.35-28.65,67.37-106.42,67.37-106.42-2.8-2.47-57.61,44-81.01,68.28-26.9,27.92-75.8,101.21-70.9,106.75,5.98,6.76,63.54-42.85,84.54-68.61Z"/>
          </g>
          <g>
            <path class="cls-6" d="M-258.48,1483.92c108.57-.62,227.24-.97,327.48,46.92,49.79-60.76,99.58-121.53,149.37-182.29-100.24-47.89-218.9-47.54-327.48-46.92-49.79,60.76-99.58,121.53-149.37,182.29Z"/>
            <path class="cls-1" d="M142.41,1438.92c25.96-43.87,18.21-115.13-37.45-124.54-86.05-14.55-192.77,39.32-269.59,78.24-113.77,57.63-5.86,89.49,61.42,96.13,70.56,6.97,200.95,25.66,245.62-49.83Z"/>
          </g>
          <g>
            <g>
              <path class="cls-1" d="M69.04,1530.86c129.2,75.6,145.32,164.48,64.58,283.96-57.75,85.46-185.84,190.24-168.54,304.02,33.18-40.49,66.35-80.98,99.53-121.46-17.3-113.77,110.8-218.56,168.54-304.02,80.74-119.48,64.62-208.37-64.58-283.96-33.18,40.49-66.35,80.98-99.53,121.46Z"/>
              <path class="cls-6" d="M14.52,2054.99c46.36-94.53,93.8-199.33,165.88-291.73,33.85-43.4,87.41-100.12,89.57-158.79,2.45-66.88-58.41-94.06-110.95-111.75-57.34-19.3-67.05,1.78-34.25,43.55,65.19,83.03,85.45,148.03,34.12,238.93-40.26,71.29-144.98,159.72-166.02,246.24-5,20.57,3.21,71.19,21.66,33.55Z"/>
            </g>
            <g>
              <path class="cls-6" d="M168.57,1409.4c129.2,75.6,145.32,164.48,64.58,283.96-57.75,85.46-185.84,190.24-168.54,304.02,19.94-24.33,29.91-36.5,49.84-60.83-17.3-113.77,110.8-218.56,168.54-304.02,80.74-119.48,64.62-208.37-64.58-283.96-19.94,24.33-29.91,36.5-49.84,60.83Z"/>
              <path class="cls-1" d="M89.17,1963.89c9.15-93.14,77.36-179.82,141.07-261.46,84.82-108.7,152.62-222.7,3.48-300.89-15.52-8.14-32.73-12.83-49.93-10.68,16.37,27.32,50.57,44.67,70.96,70.43,50.39,63.65,38.5,130.47,3.65,192.45-31.55,56.11-227.86,238.16-174.78,318.38,3.74-1.07,5.16-4.31,5.54-8.22Z"/>
            </g>
          </g>
          <g>
            <path class="cls-1" d="M-20.99,2159.67c11.01,19.83,19.04,29.61,41.89,48.76,49.79-60.76,99.58-121.53,149.37-182.29-22.85-19.16-30.88-28.93-41.89-48.76-49.79,60.76-99.58,121.53-149.37,182.29Z"/>
            <path class="cls-6" d="M95.39,2116.9c18.57-25.69,60.86-104.93,55.15-109.41-8.2-6.43-68.55,38.67-95.46,63.69-26.17,24.33-77.33,90.91-61.48,109.91,15.29,18.34,84.56-40.35,101.78-64.19Z"/>
          </g>
          <g>
            <path class="cls-5" d="M20.91,2208.44c24.54,20.95,55.6,39.49,85.29,52.08,51.24-62.53,102.48-125.07,153.72-187.6-30.88-8.46-65.42-25.67-89.64-46.78-49.79,60.76-99.58,121.53-149.37,182.29Z"/>
            <path class="cls-1" d="M182.67,2166.39c20.54-27.8,53.63-97.57,39.33-107.76-16.45-11.73-90.14,36.22-122.54,61.98-26.37,20.97-81.82,89.35-43.76,113.09,40.72,25.4,102.61-34.34,126.97-67.31Z"/>
          </g>
          <g>
            <path class="cls-6" d="M106.22,2260.53c159.67,63.15,333.33,63.96,502.65,72.7,79.37-96.86,158.74-193.73,238.11-290.59-184.05,28.21-403.04,85.3-587.51,30.87-51.08,62.34-102.16,124.68-153.25,187.02Z"/>
            <path class="cls-1" d="M724.83,2188.13c49.67-101.74-34.41-118.58-126.31-108.75-129.82,13.88-267.42,55.82-393.15,95.42-35.44,11.16-69.06,29.46-55.18,69.28,17.41,49.97,119.11,61.97,157.31,67.74,128.26,19.37,354.19,5.66,417.33-123.69Z"/>
          </g>
        </g>
        <g>
          <g>
            <path class="cls-6" d="M-137.13,235.43c45.82,17.91,92.82,35.04,141.1,51.79,49.79-25.43,99.58-50.85,149.37-76.28-51.57-18.25-87.75-37.29-121.46-61.82-56.34,28.77-112.67,57.54-169.01,86.3Z"/>
            <path class="cls-4" d="M96.35,222.78c17.19-21.48-9.16-52.54-69.41-51.93-64.99.66-121.19,40-108.34,65.55,8.14,16.19,45.6,47.05,85.13,43.54,45.36-4.03,76.41-36.9,92.62-57.16Z"/>
          </g>
          <g>
            <path class="cls-4" d="M66.48,404.53c43.65,19.59,92.61,33.84,149.94,45.49,49.79-25.43,99.58-50.85,149.37-76.28-57.33-11.64-106.29-25.9-149.94-45.49-49.79,25.43-99.58,50.85-149.37,76.28Z"/>
            <path class="cls-6" d="M304.18,387.88c14.84-22.85-35.38-48.12-93.62-41.75-54.2,5.93-104.44,34.1-93.89,57.06,8.17,17.76,51.3,46.69,97.13,40.6,46.26-6.15,76.76-34.95,90.37-55.91Z"/>
          </g>
          <g>
            <path class="cls-2" d="M291.1,411.88c52.04,7.66,100,11.59,154.95,13.5,24.89-12.71,49.79-25.43,74.69-38.14-54.95-1.91-102.91-5.84-154.95-13.5-24.9,12.71-49.79,25.43-74.69,38.14Z"/>
            <path class="cls-6" d="M479.53,396.06c-7.06-15.33-72.07-14.49-100.89-13.15-31.59,1.47-76.77,14.8-39.38,28.23,26.54,9.54,66.79,16.19,100.89,11.88,24.87-3.14,44.23-16.43,39.38-26.97Z"/>
          </g>
          <g>
            <path class="cls-2" d="M216.42,450.02c173.29,24.99,352.37,3.25,529.5,17.26,24.9-12.71,49.79-25.43,74.69-38.14-177.13-14.01-356.21,7.72-529.5-17.26-24.9,12.71-49.79,25.43-74.69,38.14Z"/>
            <path class="cls-4" d="M726.12,433.56c-101.81-21.15-255.18-5.44-365.74-6.32-18.45-.15-97.41-6.45-106.34,4.53-10.17,12.52,84.39,23.63,97.57,24.6,118.91,8.72,255.39,1.01,364.98,5.94,65.9,2.96,49.96-20.35,9.52-28.75Z"/>
          </g>
          <g>
            <path class="cls-2" d="M3.97,287.22c44.51,19.29,89.08,32.64,62.4,59.65-20.23,20.47-40.88,20.41-22.58,44.91,49.79-25.43,99.58-50.85,149.37-76.28-18.3-24.5,2.35-24.44,22.58-44.91,26.69-27.01-17.89-40.36-62.4-59.65-49.79,25.43-99.58,50.85-149.37,76.28Z"/>
            <path class="cls-4" d="M144.32,318.22c12.88-11.09,118.66-63.06,43.82-71.62-31.86-3.64-88.01-11.22-109.09,4.56-18.84,14.1,20.39,45.94,18.49,58.84-2.52,17.09-26.55,29.71-47.21,47.14-9.55,8.06-22.88,19.55-6.71,22.69,33.78,6.55,84.04-47.25,100.7-61.6Z"/>
          </g>
          <g>
            <path class="cls-6" d="M43.79,391.78c4.21,3.04,6.82,4.65,13.3,8.08,49.79-25.43,99.58-50.85,149.37-76.28-6.48-3.43-9.09-5.04-13.3-8.08-49.79,25.43-99.58,50.85-149.37,76.28Z"/>
            <path class="cls-4" d="M167.19,341.25c39.64-22.54,42.6-29.19,6.36-13.68-37.77,16.16-74.78,34.29-102.97,53.71-21,14.46-22.96,20.89-6.2,13.8,37.82-15.99,70.51-35.46,102.82-53.83Z"/>
          </g>
          <g>
            <path class="cls-2" d="M446.05,425.38c39.33.82,59.16.51,98.83-.17,24.9-12.71,49.79-25.43,74.69-38.14-39.67.67-59.5.98-98.83.17-24.9,12.71-49.79,25.43-74.69,38.14Z"/>
            <path class="cls-4" d="M586.74,396.75c5.75-10.49-21.05-12.22-61.48-3.81-40.19,8.35-59.13,20.23-43.87,26.62,15.3,6.4,42.51,7.84,61.31,3.65,18.96-4.22,38.29-15.96,44.04-26.45Z"/>
          </g>
          <g>
            <path class="cls-6" d="M57.09,399.86c3.41,1.81,5.28,2.74,9.39,4.67,49.79-25.43,99.58-50.85,149.37-76.28-4.11-1.93-5.98-2.86-9.39-4.67-49.79,25.43-99.58,50.85-149.37,76.28Z"/>
            <path class="cls-4" d="M177.39,346.45c40.43-22.04,44.91-27.55,9.1-11.29-36.79,16.71-72.89,34.53-103.2,53.44-21.78,13.59-25.58,18.86-9.17,11.38,36.6-16.7,70.02-35.41,103.26-53.53Z"/>
          </g>
          <path class="cls-6" d="M-238.07,193.53c33.02,14.23,66.58,28.24,100.94,41.9,56.34-28.77,112.67-57.54,169.01-86.3-23.78-20.46-43.07-41.01-60.51-62.55-69.81,35.65-139.62,71.3-209.44,106.95Z"/>
        </g>
      </g>
      <g>
        <g>
          <path class="cls-5" d="M-270.3,2353.7c16.38,37.47,41.87,56.97,70.64,72.61,158.36-126.25,314.39-258.75,472.75-385.01-24.6-22.5-45.98-47.63-61.06-83.5-160.78,131.97-321.55,263.93-482.33,395.9Z"/>
          <path class="cls-6" d="M36.71,2233.11c63.15-53.65,129.52-106.74,187.48-172.33,6.61-7.48,33.26-34.18,20.47-48.4-14.06-15.64-39.34-1.45-54.53,5.93-74.93,36.4-146.93,91.69-217.51,142.79-68.76,49.78-143.19,99.75-204.65,168.15-14.53,16.17-34.35,41.38-14.99,62.15,20.52,22.01,49.74,8.92,72.73-2.91,73.65-37.92,143.79-98.31,211-155.39Z"/>
        </g>
        <g>
          <path class="cls-5" d="M-199.67,2426.31c73.02,35.55,153.17,41.95,230.13,55.98,141.2-101.45,274.43-226.4,415.63-327.85-57.67-37.64-118.74-66.62-173.01-113.14-158.36,126.25-314.39,258.75-472.75,385.01Z"/>
          <path class="cls-6" d="M237.61,2317.64c34-29.64,67.97-60.55,100.23-94.5,16.39-17.25,34.24-35.68,47.3-58.17,13.7-23.59,11.57-41.22-7.44-52.33-27.66-16.17-59.53-11.39-89.13-2.23-83.65,25.88-165.2,79.34-243.31,129.39-43.53,27.9-86.86,57.88-128.53,91.91-23.11,18.87-51.3,39.76-68.97,69.27-25.18,42.05,25.23,51.72,44.9,56.11,122.35,27.3,239.35-47.37,344.95-139.45Z"/>
        </g>
        <g>
          <path class="cls-5" d="M30.51,2482.3c10.69,2.02,21.36,4.13,32.01,6.37,137.89-98.22,267.59-220.74,405.48-318.96-7.24-5.24-14.52-10.3-21.87-15.26-141.2,101.45-274.42,226.39-415.61,327.84Z"/>
          <path class="cls-6" d="M265.51,2328.83c55.42-44.61,111.09-89.06,165.7-135.88,5.87-5.03,29.67-27.13,28.48-29.2-2.42-4.22-29.72,14.3-40.63,21.73-60.85,41.4-120.22,88.05-179.58,133.67-57.98,44.56-116.48,88.79-173.02,137.35-2.65,2.28-31.35,26.18-21.91,28.5,14.26,3.5,34.18-13.79,47.96-23.22,58.93-40.32,116.06-87.11,173-132.94Z"/>
        </g>
        <g>
          <path class="cls-1" d="M-29.43,2962.39c-3.23,8.89-5.54,20.3-5.82,30.08,31.55-25.17,62.98-50.66,94.53-75.83,2.28-11.69,6.8-22.47,12.25-32-33.87,25.3-67.09,52.46-100.97,77.75Z"/>
          <path class="cls-5" d="M12.11,2954.33c15.89-13.3,50.05-39.89,50.47-50.05.2-4.84-36.78,17.09-42.3,20.88-14.91,10.24-52.05,32.53-53.32,50.18-.91,12.61,39.43-16.22,45.15-21.01Z"/>
        </g>
        <g>
          <path class="cls-6" d="M62.52,2488.68c51.22,11.41,111.18,23.72,151.07,71.88,114.46-87.73,228.53-161.68,339.87-272.89-13.54-57.73-49.21-90.4-85.47-117.94-137.89,98.21-267.59,220.74-405.47,318.95Z"/>
          <path class="cls-1" d="M383.53,2423.15c45.69-39.87,95.66-81.25,134.95-134.69,9.5-12.93,25.44-35.79,13.87-53.41-13.84-21.07-40.31-14.26-58.64-8.84-68.84,20.35-136.41,65.9-200.55,106.73-36.81,23.44-73.52,48.47-108.98,76.57-19.31,15.3-43.41,31.98-58.35,56.12-19.13,30.87,19.06,39.5,33.56,45.19,29.5,11.57,58.04,20.91,89.59,12.37,54.68-14.82,107.37-58.86,154.55-100.04Z"/>
        </g>
        <g>
          <g>
            <path class="cls-1" d="M213.61,2560.58c23.1,30.82,35.31,71.25,16.25,114.72-17.15,39.13-47.21,67.2-73.97,91.78-32.07,29.46-65.5,55.65-97.82,84.52-31.64,28.27-70.38,61.64-87.48,110.7,23.45-17.52,46.61-35.88,69.87-53.93,28.76-56.4,80.89-92.58,122.52-125.44,48.22-38.06,97.3-73.81,144.56-114.42,44.05-37.85,89.48-80.39,122.52-137.5,27.1-46.86,44.07-116.69,25.53-172.19-81.39,65.65-159.6,138.78-241.98,201.74Z"/>
            <path class="cls-6" d="M2.6,2936.31c67.65-86.67,151.02-145.95,232.24-208.97,28.24-21.91,56.55-44.31,83.43-69.82,19.48-18.48,40.69-39.13,54.46-66.57,28.43-56.65-21.36-83.53-53.54-84.8-29.09-1.14-77.31,8.81-76.43,62.97.41,25.59,4.54,48.79-1.09,74.62-9.18,42.09-35.84,73.28-59.9,98.24-54.12,56.13-122.13,95.3-172.03,161.64-3.89,5.17-20.77,26.1-18.06,35.83,2.14,7.7,7.13,1.72,10.93-3.14Z"/>
          </g>
          <g>
            <path class="cls-6" d="M455.59,2358.84c18.54,55.49,1.58,125.33-25.53,172.19-33.03,57.11-78.46,99.65-122.52,137.5-47.26,40.61-96.35,76.36-144.56,114.42-41.63,32.86-93.77,69.04-122.52,125.44,10.35-8.01,20.69-16.07,31.12-23.83,33.17-59.23,91.06-95.74,136.83-130.13,53.35-40.08,107.34-78.43,159.32-122.29,50.05-42.24,100.54-89.78,139.27-152.49,31.8-51.49,59.2-125.06,46.46-191.94-32.11,24.5-66.17,45.58-97.88,71.14Z"/>
            <path class="cls-1" d="M59.36,2892.44c63.36-86.58,149.53-137.79,226.93-196,65.55-49.3,133.83-101.58,188.25-175.21,20.84-28.19,40.69-61.19,50.5-99.6,6.26-24.51,11.06-61.65-1.74-81.81-19.84-31.26-35.24,6.28-39.94,33.22-6.74,38.66-12.62,75.04-27.49,110.34-26.22,62.23-67.63,109.6-109.08,149.57-74.95,72.28-159.64,124.16-236.19,194.58-15.04,13.83-51.05,41.57-55.36,69.27,1.58-1,2.85-2.63,4.12-4.37Z"/>
          </g>
        </g>
        <g>
          <path class="cls-1" d="M-35.25,2992.47c-.57,14.28,2.32,26.17,6.17,38.75,30.45-24.99,60.91-49.99,91.36-74.98-3.62-13.14-5.79-25.02-3-39.6-31.55,25.17-62.98,50.66-94.53,75.83Z"/>
          <path class="cls-6" d="M16.59,2993.47c11.46-10.28,43.93-41.39,41.96-52.59-1.65-9.38-38.68,10.63-46.79,15.72-12.29,7.72-49.14,31.22-46.28,52.48,2.83,20.96,43.3-8.61,51.11-15.62Z"/>
        </g>
        <g>
          <path class="cls-5" d="M-29.08,3031.23c6.82,16.87,14.49,31.21,24.07,45,31.34-25.72,62.67-51.44,94.01-77.16-11.24-12.4-19.46-25.34-26.72-42.82-30.45,24.99-60.91,49.99-91.36,74.98Z"/>
          <path class="cls-1" d="M41.9,3037.4c7.36-6.97,41.81-42.26,35.07-52.66-8.33-12.86-45.17,4.74-59.4,11.72-11.64,5.71-50.05,32.12-37.27,56.11,12.46,23.4,47.67-1.98,61.61-15.17Z"/>
        </g>
        <g>
          <path class="cls-6" d="M-5.01,3076.24c45.55,57.19,108.73,71.38,167.42,90.36,48.54-39.84,97.08-79.68,145.62-119.52-40.9-1.31-82.07-.97-122.61-6.84-33.58-4.86-69.22-13.58-96.71-40.92-31.24,25.64-62.48,51.28-93.72,76.93Z"/>
          <path class="cls-1" d="M234.09,3106.66c8.12-9.08,28.24-29.85,20.56-47.59-6.8-15.7-31.05-14.76-42.45-15.85-53.15-5.06-109.56.17-163.2,2.3-12.87.51-34.55,4.06-34.35,28.63.25,29.81,29.36,46.56,44.98,54.82,50.63,26.8,127.77,29.91,174.47-22.32Z"/>
        </g>
        <g>
          <path class="cls-5" d="M162.45,3166.61c10.23,3.4,20.41,6.95,30.55,10.75,51.99-42.67,103.97-85.34,155.96-128.01-13.61-1.04-27.23-1.75-40.88-2.27-48.54,39.84-97.09,79.69-145.63,119.53Z"/>
          <path class="cls-6" d="M270.78,3113.33c3.66-3.12,67.31-63.34,62.56-65.09-6.37-2.35-19.99,8.06-29.12,13.52-22.86,13.68-45.28,29.55-67.29,45.57-18.55,13.5-39.44,27.22-55.98,46.04-4.18,4.76-12.31,14.65-5.1,17.76,8.7,3.75,21.45-4.33,30.81-9.76,22.26-12.94,43.56-30.52,64.12-48.02Z"/>
        </g>
        <g>
          <path class="cls-1" d="M193,3177.36c38.5,15.36,74.22,35.3,102.05,75.83,61.61-50.57,123.22-101.14,184.83-151.71-36.1-40.94-84.57-48.08-130.59-52.41-52.1,42.76-104.2,85.53-156.29,128.29Z"/>
          <path class="cls-6" d="M387.21,3176.61c9.78-9.34,92.29-88.39,51.16-107.15-17.8-8.12-39.64-2.89-58.11,2.14-34.67,9.44-69.02,25.65-101.94,43.3-14.73,7.9-54.71,24.43-61.05,50.37-4.86,19.89,15.88,30.45,25.46,36.42,19.12,11.93,39.47,22.08,61.28,20.6,29.82-2.02,58.76-22.35,83.2-45.68Z"/>
        </g>
        <g>
          <g>
            <path class="cls-5" d="M295.07,3253.21c26.37,44.69,34.29,92.76,22.91,151.53,45.8-37.59,91.59-75.18,137.39-112.77,6.53-56,3.01-112.28-30.65-145.18-43.22,35.47-86.43,70.95-129.65,106.42Z"/>
            <path class="cls-6" d="M374.93,3357.33c20.85-19.56,41.82-42.28,59.69-68.28,9.33-13.58,23.96-34.8,22.16-53.57-4.15-43.34-82.78-26.14-102.62-20.87-14.55,3.87-37.7,12.26-43.18,35.79-4.93,21.16,5.79,47.32,9.52,66.56,3.01,15.54,3.11,46.92,12.6,57.67,11.7,13.25,31.78-7.88,41.82-17.3Z"/>
          </g>
          <g>
            <path class="cls-6" d="M317.98,3404.77c-24.4,102.32-87.59,183.54-100.63,290.91,56.03-45.99,112.06-91.98,168.08-137.97,4.96-95.66,54.97-173.13,69.93-265.71-45.8,37.59-91.59,75.18-137.39,112.77Z"/>
            <path class="cls-5" d="M286.06,3637.89c44.47-47.36,98.37-112.89,120.15-183.65,13.96-45.34-2.29-74.62-34.79-81.22-18.97-3.85-34.82,16.72-45.9,37.96-19.85,38.05-36.32,80.5-53.96,120.37-12.24,27.68-41.22,80.17-34.32,114.79,6.3,31.61,37.54,3.74,48.81-8.25Z"/>
          </g>
          <g>
            <path class="cls-6" d="M424.73,3146.79c88.83,127.73-32.12,270.19-39.29,410.97,22.87-18.77,45.75-37.55,68.62-56.32,1.74-70.51,28.56-130.71,46.24-196.07,19.63-72.59,18.42-149.11-20.39-203.87-18.39,15.1-36.78,30.19-55.18,45.29Z"/>
            <path class="cls-1" d="M427.62,3521.01c11.7-22.14,19.36-49.87,27.45-75.22,10.32-32.35,21.56-64.26,31.98-96.45,23.21-71.69,34.79-162.84-17.39-210.51-4.21-3.84-18.33-16.4-24.22-9.03-5.22,6.52.46,21.25,2.07,27.94,13.77,56.99,15.43,111.57.8,170.03-12.68,50.65-41.57,108.77-42.53,164.11-.23,12.99,8.05,55.22,21.84,29.13Z"/>
          </g>
        </g>
      </g>
    </g>
  </g>
</svg>