<svg width="1440" height="924" viewBox="0 0 1440 924" fill="none" xmlns="http://www.w3.org/2000/svg">
<rect width="1440" height="922" fill="#070000"/>
<rect x="-1" y="0.40625" width="661.288" height="193.67" fill="#E35953"/>
<rect x="660.288" y="0.40625" width="416.441" height="195.677" fill="#EFEFEF"/>
<rect x="613" y="574" width="413" height="195" fill="#F5BB20"/>
<rect x="877" y="754" width="569" height="168" fill="#F5BB20"/>
<path d="M16 147.486V54.3952H56.1818C63.0909 54.3952 69.1364 55.6527 74.3182 58.1679C79.5 60.6831 83.5303 64.3043 86.4091 69.0315C89.2879 73.7588 90.7273 79.4255 90.7273 86.0315C90.7273 92.6982 89.2424 98.3194 86.2727 102.895C83.3333 107.471 79.197 110.925 73.8636 113.259C68.5606 115.592 62.3636 116.759 55.2727 116.759H31.2727V97.1224H50.1818C53.1515 97.1224 55.6818 96.7588 57.7727 96.0315C59.8939 95.274 61.5152 94.077 62.6364 92.4406C63.7879 90.8043 64.3636 88.6679 64.3636 86.0315C64.3636 83.3649 63.7879 81.1982 62.6364 79.5315C61.5152 77.8346 59.8939 76.5921 57.7727 75.8043C55.6818 74.9861 53.1515 74.577 50.1818 74.577H41.2727V147.486H16ZM70.5455 104.759L93.8182 147.486H66.3636L43.6364 104.759H70.5455ZM101.5 147.486V54.3952H168.591V74.7588H126.773V90.7588H165.136V111.122H126.773V127.122H168.409V147.486H101.5ZM241.58 85.1224C241.186 83.5164 240.564 82.1073 239.716 80.8952C238.867 79.6528 237.807 78.6073 236.534 77.7588C235.292 76.88 233.837 76.2285 232.17 75.8043C230.534 75.3497 228.731 75.1224 226.761 75.1224C222.519 75.1224 218.898 76.1376 215.898 78.1679C212.928 80.1982 210.655 83.1224 209.08 86.9406C207.534 90.7588 206.761 95.3649 206.761 100.759C206.761 106.213 207.504 110.88 208.989 114.759C210.473 118.638 212.686 121.607 215.625 123.668C218.564 125.729 222.216 126.759 226.58 126.759C230.428 126.759 233.625 126.198 236.17 125.077C238.746 123.956 240.67 122.365 241.943 120.304C243.216 118.244 243.852 115.819 243.852 113.032L248.216 113.486H226.943V95.4861H268.216V108.395C268.216 116.88 266.413 124.138 262.807 130.168C259.231 136.168 254.292 140.774 247.989 143.986C241.716 147.168 234.519 148.759 226.398 148.759C217.337 148.759 209.383 146.835 202.534 142.986C195.686 139.138 190.337 133.653 186.489 126.532C182.67 119.41 180.761 110.941 180.761 101.122C180.761 93.4255 181.928 86.6073 184.261 80.6679C186.625 74.7285 189.898 69.7134 194.08 65.6224C198.261 61.5012 203.095 58.3952 208.58 56.3043C214.064 54.183 219.943 53.1224 226.216 53.1224C231.731 53.1224 236.852 53.9103 241.58 55.4861C246.337 57.0315 250.534 59.2437 254.17 62.1224C257.837 64.9709 260.792 68.3497 263.034 72.2588C265.277 76.1679 266.64 80.4558 267.125 85.1224H241.58ZM305.273 54.3952V147.486H280V54.3952H305.273ZM367.432 83.4861C367.189 80.4558 366.053 78.0921 364.023 76.3952C362.023 74.6982 358.977 73.8497 354.886 73.8497C352.28 73.8497 350.144 74.1679 348.477 74.8043C346.841 75.4103 345.629 76.2437 344.841 77.3043C344.053 78.3649 343.644 79.577 343.614 80.9406C343.553 82.0618 343.75 83.077 344.205 83.9861C344.689 84.8649 345.447 85.6679 346.477 86.3952C347.508 87.0921 348.826 87.7285 350.432 88.3043C352.038 88.88 353.947 89.3952 356.159 89.8497L363.795 91.4861C368.947 92.577 373.356 94.0164 377.023 95.8043C380.689 97.5921 383.689 99.6982 386.023 102.122C388.356 104.516 390.068 107.213 391.159 110.213C392.28 113.213 392.856 116.486 392.886 120.032C392.856 126.153 391.326 131.335 388.295 135.577C385.265 139.819 380.932 143.047 375.295 145.259C369.689 147.471 362.947 148.577 355.068 148.577C346.977 148.577 339.917 147.38 333.886 144.986C327.886 142.592 323.22 138.91 319.886 133.941C316.583 128.941 314.917 122.547 314.886 114.759H338.886C339.038 117.607 339.75 120.001 341.023 121.941C342.295 123.88 344.083 125.35 346.386 126.35C348.72 127.35 351.492 127.85 354.705 127.85C357.402 127.85 359.659 127.516 361.477 126.85C363.295 126.183 364.674 125.259 365.614 124.077C366.553 122.895 367.038 121.547 367.068 120.032C367.038 118.607 366.568 117.365 365.659 116.304C364.78 115.213 363.326 114.244 361.295 113.395C359.265 112.516 356.523 111.698 353.068 110.941L343.795 108.941C335.553 107.153 329.053 104.168 324.295 99.9861C319.568 95.774 317.22 90.0315 317.25 82.7588C317.22 76.8497 318.795 71.6831 321.977 67.2588C325.189 62.8043 329.629 59.3346 335.295 56.8497C340.992 54.3649 347.523 53.1224 354.886 53.1224C362.402 53.1224 368.902 54.38 374.386 56.8952C379.871 59.4103 384.098 62.9558 387.068 67.5315C390.068 72.077 391.583 77.3952 391.614 83.4861H367.432ZM399.955 74.7588V54.3952H480.864V74.7588H452.864V147.486H427.955V74.7588H399.955ZM490.375 147.486V54.3952H557.466V74.7588H515.648V90.7588H554.011V111.122H515.648V127.122H557.284V147.486H490.375ZM570 147.486V54.3952H610.182C617.091 54.3952 623.136 55.6527 628.318 58.1679C633.5 60.6831 637.53 64.3043 640.409 69.0315C643.288 73.7588 644.727 79.4255 644.727 86.0315C644.727 92.6982 643.242 98.3194 640.273 102.895C637.333 107.471 633.197 110.925 627.864 113.259C622.561 115.592 616.364 116.759 609.273 116.759H585.273V97.1224H604.182C607.152 97.1224 609.682 96.7588 611.773 96.0315C613.894 95.274 615.515 94.077 616.636 92.4406C617.788 90.8043 618.364 88.6679 618.364 86.0315C618.364 83.3649 617.788 81.1982 616.636 79.5315C615.515 77.8346 613.894 76.5921 611.773 75.8043C609.682 74.9861 607.152 74.577 604.182 74.577H595.273V147.486H570ZM624.545 104.759L647.818 147.486H620.364L597.636 104.759H624.545Z" fill="#070000"/>
<path d="M717.727 150.032C709.273 150.001 701.97 148.047 695.818 144.168C689.667 140.289 684.924 134.698 681.591 127.395C678.258 120.092 676.606 111.335 676.636 101.122C676.667 90.88 678.333 82.1831 681.636 75.0315C684.97 67.88 689.697 62.4406 695.818 58.7134C701.97 54.9861 709.273 53.1224 717.727 53.1224C726.182 53.1224 733.485 55.0012 739.636 58.7588C745.788 62.4861 750.53 67.9255 753.864 75.077C757.197 82.2285 758.848 90.9103 758.818 101.122C758.818 111.395 757.152 120.183 753.818 127.486C750.485 134.789 745.742 140.38 739.591 144.259C733.47 148.107 726.182 150.032 717.727 150.032ZM717.727 129.486C722.091 129.486 725.667 127.213 728.455 122.668C731.273 118.092 732.667 110.91 732.636 101.122C732.636 94.7285 732 89.5012 730.727 85.4406C729.455 81.38 727.697 78.38 725.455 76.4406C723.212 74.4709 720.636 73.4861 717.727 73.4861C713.364 73.4861 709.803 75.6982 707.045 80.1224C704.288 84.5467 702.879 91.5467 702.818 101.122C702.788 107.638 703.409 113.001 704.682 117.213C705.955 121.395 707.712 124.486 709.955 126.486C712.227 128.486 714.818 129.486 717.727 129.486ZM816.318 54.3952V147.486H791.045V77.6679H790.5L770.136 89.8497V68.3952L793.045 54.3952H816.318ZM881.25 50.0315L851.25 161.486H829.977L859.977 50.0315H881.25ZM928.727 150.032C920.273 150.001 912.97 148.047 906.818 144.168C900.667 140.289 895.924 134.698 892.591 127.395C889.258 120.092 887.606 111.335 887.636 101.122C887.667 90.88 889.333 82.1831 892.636 75.0315C895.97 67.88 900.697 62.4406 906.818 58.7134C912.97 54.9861 920.273 53.1224 928.727 53.1224C937.182 53.1224 944.485 55.0012 950.636 58.7588C956.788 62.4861 961.53 67.9255 964.864 75.077C968.197 82.2285 969.848 90.9103 969.818 101.122C969.818 111.395 968.152 120.183 964.818 127.486C961.485 134.789 956.742 140.38 950.591 144.259C944.47 148.107 937.182 150.032 928.727 150.032ZM928.727 129.486C933.091 129.486 936.667 127.213 939.455 122.668C942.273 118.092 943.667 110.91 943.636 101.122C943.636 94.7285 943 89.5012 941.727 85.4406C940.455 81.38 938.697 78.38 936.455 76.4406C934.212 74.4709 931.636 73.4861 928.727 73.4861C924.364 73.4861 920.803 75.6982 918.045 80.1224C915.288 84.5467 913.879 91.5467 913.818 101.122C913.788 107.638 914.409 113.001 915.682 117.213C916.955 121.395 918.712 124.486 920.955 126.486C923.227 128.486 925.818 129.486 928.727 129.486ZM1018.05 53.1224C1023.47 53.1224 1028.61 53.9861 1033.45 55.7134C1038.3 57.4103 1042.59 60.0921 1046.32 63.7588C1050.08 67.4255 1053.02 72.2134 1055.14 78.1224C1057.29 84.0012 1058.38 91.1224 1058.41 99.4861C1058.44 107.122 1057.48 113.986 1055.55 120.077C1053.64 126.138 1050.89 131.304 1047.32 135.577C1043.77 139.85 1039.5 143.122 1034.5 145.395C1029.53 147.638 1023.98 148.759 1017.86 148.759C1010.98 148.759 1004.94 147.441 999.727 144.804C994.515 142.168 990.364 138.622 987.273 134.168C984.182 129.713 982.379 124.759 981.864 119.304H1006.77C1007.38 122.122 1008.71 124.168 1010.77 125.441C1012.83 126.683 1015.2 127.304 1017.86 127.304C1023.2 127.304 1027.09 125.001 1029.55 120.395C1032.03 115.759 1033.29 109.577 1033.32 101.85H1032.77C1031.59 104.698 1029.8 107.138 1027.41 109.168C1025.02 111.198 1022.23 112.759 1019.05 113.85C1015.86 114.941 1012.5 115.486 1008.95 115.486C1003.35 115.486 998.439 114.229 994.227 111.713C990.015 109.168 986.727 105.698 984.364 101.304C982 96.88 980.803 91.8497 980.773 86.2134C980.742 79.6073 982.303 73.8194 985.455 68.8497C988.606 63.88 992.985 60.0164 998.591 57.2588C1004.2 54.5012 1010.68 53.1224 1018.05 53.1224ZM1018.23 72.2134C1015.71 72.2134 1013.47 72.7891 1011.5 73.9406C1009.56 75.0921 1008.03 76.6527 1006.91 78.6224C1005.82 80.5921 1005.29 82.8194 1005.32 85.3043C1005.35 87.7891 1005.91 90.0164 1007 91.9861C1008.12 93.9558 1009.64 95.5164 1011.55 96.6679C1013.48 97.8194 1015.71 98.3952 1018.23 98.3952C1020.08 98.3952 1021.79 98.077 1023.36 97.4406C1024.94 96.774 1026.3 95.8497 1027.45 94.6679C1028.64 93.4558 1029.55 92.0618 1030.18 90.4861C1030.85 88.88 1031.17 87.1527 1031.14 85.3043C1031.11 82.8194 1030.53 80.5921 1029.41 78.6224C1028.29 76.6527 1026.76 75.0921 1024.82 73.9406C1022.88 72.7891 1020.68 72.2134 1018.23 72.2134Z" fill="#E35953"/>
<rect x="229.799" y="194.076" width="912.156" height="193.67" fill="#1A99CF"/>
<rect x="642" y="385" width="500" height="193" fill="#1A99CF"/>
<rect x="230" y="385" width="412" height="193" fill="#EFEFEF"/>
<rect x="1026" y="578" width="420" height="176.319" fill="#EFEFEF"/>
<path d="M248.844 336.139V243.048H289.026C295.935 243.048 301.98 244.412 307.162 247.139C312.344 249.866 316.374 253.7 319.253 258.639C322.132 263.578 323.571 269.351 323.571 275.957C323.571 282.624 322.086 288.396 319.116 293.275C316.177 298.154 312.041 301.912 306.707 304.548C301.404 307.184 295.207 308.503 288.116 308.503H264.116V288.866H283.026C285.995 288.866 288.526 288.351 290.616 287.321C292.738 286.26 294.359 284.76 295.48 282.821C296.632 280.881 297.207 278.593 297.207 275.957C297.207 273.29 296.632 271.018 295.48 269.139C294.359 267.23 292.738 265.775 290.616 264.775C288.526 263.745 285.995 263.23 283.026 263.23H274.116V336.139H248.844ZM332.844 336.139V243.048H373.026C379.935 243.048 385.98 244.306 391.162 246.821C396.344 249.336 400.374 252.957 403.253 257.684C406.132 262.412 407.571 268.078 407.571 274.684C407.571 281.351 406.086 286.972 403.116 291.548C400.177 296.124 396.041 299.578 390.707 301.912C385.404 304.245 379.207 305.412 372.116 305.412H348.116V285.775H367.026C369.995 285.775 372.526 285.412 374.616 284.684C376.738 283.927 378.359 282.73 379.48 281.093C380.632 279.457 381.207 277.321 381.207 274.684C381.207 272.018 380.632 269.851 379.48 268.184C378.359 266.487 376.738 265.245 374.616 264.457C372.526 263.639 369.995 263.23 367.026 263.23H358.116V336.139H332.844ZM387.389 293.412L410.662 336.139H383.207L360.48 293.412H387.389ZM418.344 336.139V243.048H485.435V263.412H443.616V279.412H481.98V299.775H443.616V315.775H485.253V336.139H418.344ZM497.969 336.139V243.048H523.241V315.775H560.878V336.139H497.969ZM596.366 243.048V336.139H571.094V243.048H596.366ZM608.344 243.048H639.798L661.435 295.775H662.526L684.162 243.048H715.616V336.139H690.889V282.321H690.162L669.435 335.412H654.526L633.798 281.957H633.071V336.139H608.344V243.048ZM752.866 243.048V336.139H727.594V243.048H752.866ZM845.389 243.048V336.139H824.298L790.662 287.23H790.116V336.139H764.844V243.048H786.298L819.389 291.775H820.116V243.048H845.389ZM881.526 336.139H854.253L884.98 243.048H919.526L950.253 336.139H922.98L902.616 268.684H901.889L881.526 336.139ZM876.435 299.412H927.707V318.321H876.435V299.412ZM959.219 336.139V243.048H999.401C1006.31 243.048 1012.36 244.306 1017.54 246.821C1022.72 249.336 1026.75 252.957 1029.63 257.684C1032.51 262.412 1033.95 268.078 1033.95 274.684C1033.95 281.351 1032.46 286.972 1029.49 291.548C1026.55 296.124 1022.42 299.578 1017.08 301.912C1011.78 304.245 1005.58 305.412 998.491 305.412H974.491V285.775H993.401C996.37 285.775 998.901 285.412 1000.99 284.684C1003.11 283.927 1004.73 282.73 1005.86 281.093C1007.01 279.457 1007.58 277.321 1007.58 274.684C1007.58 272.018 1007.01 269.851 1005.86 268.184C1004.73 266.487 1003.11 265.245 1000.99 264.457C998.901 263.639 996.37 263.23 993.401 263.23H984.491V336.139H959.219ZM1013.76 293.412L1037.04 336.139H1009.58L986.855 293.412H1013.76ZM1036.53 243.048H1064.71L1082.89 280.866H1083.62L1101.8 243.048H1129.98L1095.8 306.866V336.139H1070.71V306.866L1036.53 243.048Z" fill="#070000"/>
<path d="M635 720.469V627.378H700.455V647.741H660.273V663.741H696.455V684.105H660.273V720.469H635ZM735.023 627.378V720.469H709.75V627.378H735.023ZM827.545 627.378V720.469H806.455L772.818 671.56H772.273V720.469H747V627.378H768.455L801.545 676.105H802.273V627.378H827.545ZM863.682 720.469H836.409L867.136 627.378H901.682L932.409 720.469H905.136L884.773 653.014H884.045L863.682 720.469ZM858.591 683.741H909.864V702.651H858.591V683.741ZM941.375 720.469V627.378H966.648V700.105H1004.28V720.469H941.375Z" fill="#070000"/>
<path d="M666 530V436.909H706.182C713.091 436.909 719.136 438.167 724.318 440.682C729.5 443.197 733.53 446.818 736.409 451.545C739.288 456.273 740.727 461.939 740.727 468.545C740.727 475.212 739.242 480.833 736.273 485.409C733.333 489.985 729.197 493.439 723.864 495.773C718.561 498.106 712.364 499.273 705.273 499.273H681.273V479.636H700.182C703.152 479.636 705.682 479.273 707.773 478.545C709.894 477.788 711.515 476.591 712.636 474.955C713.788 473.318 714.364 471.182 714.364 468.545C714.364 465.879 713.788 463.712 712.636 462.045C711.515 460.348 709.894 459.106 707.773 458.318C705.682 457.5 703.152 457.091 700.182 457.091H691.273V530H666ZM720.545 487.273L743.818 530H716.364L693.636 487.273H720.545ZM841.682 483.455C841.682 493.818 839.667 502.561 835.636 509.682C831.606 516.773 826.167 522.152 819.318 525.818C812.47 529.455 804.833 531.273 796.409 531.273C787.924 531.273 780.258 529.439 773.409 525.773C766.591 522.076 761.167 516.682 757.136 509.591C753.136 502.47 751.136 493.758 751.136 483.455C751.136 473.091 753.136 464.364 757.136 457.273C761.167 450.152 766.591 444.773 773.409 441.136C780.258 437.47 787.924 435.636 796.409 435.636C804.833 435.636 812.47 437.47 819.318 441.136C826.167 444.773 831.606 450.152 835.636 457.273C839.667 464.364 841.682 473.091 841.682 483.455ZM815.682 483.455C815.682 477.879 814.939 473.182 813.455 469.364C812 465.515 809.833 462.606 806.955 460.636C804.106 458.636 800.591 457.636 796.409 457.636C792.227 457.636 788.697 458.636 785.818 460.636C782.97 462.606 780.803 465.515 779.318 469.364C777.864 473.182 777.136 477.879 777.136 483.455C777.136 489.03 777.864 493.742 779.318 497.591C780.803 501.409 782.97 504.318 785.818 506.318C788.697 508.288 792.227 509.273 796.409 509.273C800.591 509.273 804.106 508.288 806.955 506.318C809.833 504.318 812 501.409 813.455 497.591C814.939 493.742 815.682 489.03 815.682 483.455ZM908.466 436.909H933.739V496.545C933.739 503.636 932.042 509.773 928.648 514.955C925.284 520.106 920.587 524.091 914.557 526.909C908.527 529.697 901.527 531.091 893.557 531.091C885.527 531.091 878.496 529.697 872.466 526.909C866.436 524.091 861.739 520.106 858.375 514.955C855.042 509.773 853.375 503.636 853.375 496.545V436.909H878.648V494.364C878.648 497.242 879.284 499.818 880.557 502.091C881.83 504.333 883.587 506.091 885.83 507.364C888.102 508.636 890.678 509.273 893.557 509.273C896.466 509.273 899.042 508.636 901.284 507.364C903.527 506.091 905.284 504.333 906.557 502.091C907.83 499.818 908.466 497.242 908.466 494.364V436.909ZM1026.3 436.909V530H1005.2L971.568 481.091H971.023V530H945.75V436.909H967.205L1000.3 485.636H1001.02V436.909H1026.3ZM1074.07 530H1038.25V436.909H1073.7C1083.28 436.909 1091.55 438.773 1098.52 442.5C1105.52 446.197 1110.92 451.53 1114.7 458.5C1118.52 465.439 1120.43 473.758 1120.43 483.455C1120.43 493.152 1118.54 501.485 1114.75 508.455C1110.96 515.394 1105.6 520.727 1098.66 524.455C1091.72 528.152 1083.52 530 1074.07 530ZM1063.52 508.545H1073.16C1077.77 508.545 1081.69 507.803 1084.93 506.318C1088.2 504.833 1090.69 502.273 1092.39 498.636C1094.11 495 1094.98 489.939 1094.98 483.455C1094.98 476.97 1094.1 471.909 1092.34 468.273C1090.61 464.636 1088.07 462.076 1084.7 460.591C1081.37 459.106 1077.28 458.364 1072.43 458.364H1063.52V508.545Z" fill="#070000"/>
<path d="M937 893V799.909H977.182C984.091 799.909 990.136 801.167 995.318 803.682C1000.5 806.197 1004.53 809.818 1007.41 814.545C1010.29 819.273 1011.73 824.939 1011.73 831.545C1011.73 838.212 1010.24 843.833 1007.27 848.409C1004.33 852.985 1000.2 856.439 994.864 858.773C989.561 861.106 983.364 862.273 976.273 862.273H952.273V842.636H971.182C974.152 842.636 976.682 842.273 978.773 841.545C980.894 840.788 982.515 839.591 983.636 837.955C984.788 836.318 985.364 834.182 985.364 831.545C985.364 828.879 984.788 826.712 983.636 825.045C982.515 823.348 980.894 822.106 978.773 821.318C976.682 820.5 974.152 820.091 971.182 820.091H962.273V893H937ZM991.545 850.273L1014.82 893H987.364L964.636 850.273H991.545ZM1112.68 846.455C1112.68 856.818 1110.67 865.561 1106.64 872.682C1102.61 879.773 1097.17 885.152 1090.32 888.818C1083.47 892.455 1075.83 894.273 1067.41 894.273C1058.92 894.273 1051.26 892.439 1044.41 888.773C1037.59 885.076 1032.17 879.682 1028.14 872.591C1024.14 865.47 1022.14 856.758 1022.14 846.455C1022.14 836.091 1024.14 827.364 1028.14 820.273C1032.17 813.152 1037.59 807.773 1044.41 804.136C1051.26 800.47 1058.92 798.636 1067.41 798.636C1075.83 798.636 1083.47 800.47 1090.32 804.136C1097.17 807.773 1102.61 813.152 1106.64 820.273C1110.67 827.364 1112.68 836.091 1112.68 846.455ZM1086.68 846.455C1086.68 840.879 1085.94 836.182 1084.45 832.364C1083 828.515 1080.83 825.606 1077.95 823.636C1075.11 821.636 1071.59 820.636 1067.41 820.636C1063.23 820.636 1059.7 821.636 1056.82 823.636C1053.97 825.606 1051.8 828.515 1050.32 832.364C1048.86 836.182 1048.14 840.879 1048.14 846.455C1048.14 852.03 1048.86 856.742 1050.32 860.591C1051.8 864.409 1053.97 867.318 1056.82 869.318C1059.7 871.288 1063.23 872.273 1067.41 872.273C1071.59 872.273 1075.11 871.288 1077.95 869.318C1080.83 867.318 1083 864.409 1084.45 860.591C1085.94 856.742 1086.68 852.03 1086.68 846.455ZM1179.47 799.909H1204.74V859.545C1204.74 866.636 1203.04 872.773 1199.65 877.955C1196.28 883.106 1191.59 887.091 1185.56 889.909C1179.53 892.697 1172.53 894.091 1164.56 894.091C1156.53 894.091 1149.5 892.697 1143.47 889.909C1137.44 887.091 1132.74 883.106 1129.38 877.955C1126.04 872.773 1124.38 866.636 1124.38 859.545V799.909H1149.65V857.364C1149.65 860.242 1150.28 862.818 1151.56 865.091C1152.83 867.333 1154.59 869.091 1156.83 870.364C1159.1 871.636 1161.68 872.273 1164.56 872.273C1167.47 872.273 1170.04 871.636 1172.28 870.364C1174.53 869.091 1176.28 867.333 1177.56 865.091C1178.83 862.818 1179.47 860.242 1179.47 857.364V799.909ZM1297.3 799.909V893H1276.2L1242.57 844.091H1242.02V893H1216.75V799.909H1238.2L1271.3 848.636H1272.02V799.909H1297.3ZM1345.07 893H1309.25V799.909H1344.7C1354.28 799.909 1362.55 801.773 1369.52 805.5C1376.52 809.197 1381.92 814.53 1385.7 821.5C1389.52 828.439 1391.43 836.758 1391.43 846.455C1391.43 856.152 1389.54 864.485 1385.75 871.455C1381.96 878.394 1376.6 883.727 1369.66 887.455C1362.72 891.152 1354.52 893 1345.07 893ZM1334.52 871.545H1344.16C1348.77 871.545 1352.69 870.803 1355.93 869.318C1359.2 867.833 1361.69 865.273 1363.39 861.636C1365.11 858 1365.98 852.939 1365.98 846.455C1365.98 839.97 1365.1 834.909 1363.34 831.273C1361.61 827.636 1359.07 825.076 1355.7 823.591C1352.37 822.106 1348.28 821.364 1343.43 821.364H1334.52V871.545Z" fill="#070000"/>
<path d="M294.818 436.909V530H269.545V460.182H269L248.636 472.364V450.909L271.545 436.909H294.818ZM313.023 515.455V495.818L350.477 436.909H368.295V463.091H358.114L337.932 495.091V495.818H393.205V515.455H313.023ZM358.295 530V509.455L358.841 500.909V436.909H382.477V530H358.295ZM449.625 432.545L419.625 544H398.352L428.352 432.545H449.625ZM497.102 532.545C488.648 532.515 481.345 530.561 475.193 526.682C469.042 522.803 464.299 517.212 460.966 509.909C457.633 502.606 455.981 493.848 456.011 483.636C456.042 473.394 457.708 464.697 461.011 457.545C464.345 450.394 469.072 444.955 475.193 441.227C481.345 437.5 488.648 435.636 497.102 435.636C505.557 435.636 512.86 437.515 519.011 441.273C525.163 445 529.905 450.439 533.239 457.591C536.572 464.742 538.223 473.424 538.193 483.636C538.193 493.909 536.527 502.697 533.193 510C529.86 517.303 525.117 522.894 518.966 526.773C512.845 530.621 505.557 532.545 497.102 532.545ZM497.102 512C501.466 512 505.042 509.727 507.83 505.182C510.648 500.606 512.042 493.424 512.011 483.636C512.011 477.242 511.375 472.015 510.102 467.955C508.83 463.894 507.072 460.894 504.83 458.955C502.587 456.985 500.011 456 497.102 456C492.739 456 489.178 458.212 486.42 462.636C483.663 467.061 482.254 474.061 482.193 483.636C482.163 490.152 482.784 495.515 484.057 499.727C485.33 503.909 487.087 507 489.33 509C491.602 511 494.193 512 497.102 512ZM586.42 435.636C591.845 435.636 596.981 436.5 601.83 438.227C606.678 439.924 610.966 442.606 614.693 446.273C618.451 449.939 621.39 454.727 623.511 460.636C625.663 466.515 626.754 473.636 626.784 482C626.814 489.636 625.86 496.5 623.92 502.591C622.011 508.652 619.269 513.818 615.693 518.091C612.148 522.364 607.875 525.636 602.875 527.909C597.905 530.152 592.36 531.273 586.239 531.273C579.36 531.273 573.314 529.955 568.102 527.318C562.89 524.682 558.739 521.136 555.648 516.682C552.557 512.227 550.754 507.273 550.239 501.818H575.148C575.754 504.636 577.087 506.682 579.148 507.955C581.208 509.197 583.572 509.818 586.239 509.818C591.572 509.818 595.466 507.515 597.92 502.909C600.405 498.273 601.663 492.091 601.693 484.364H601.148C599.966 487.212 598.178 489.652 595.784 491.682C593.39 493.712 590.602 495.273 587.42 496.364C584.239 497.455 580.875 498 577.33 498C571.723 498 566.814 496.742 562.602 494.227C558.39 491.682 555.102 488.212 552.739 483.818C550.375 479.394 549.178 474.364 549.148 468.727C549.117 462.121 550.678 456.333 553.83 451.364C556.981 446.394 561.36 442.53 566.966 439.773C572.572 437.015 579.057 435.636 586.42 435.636ZM586.602 454.727C584.087 454.727 581.845 455.303 579.875 456.455C577.936 457.606 576.405 459.167 575.284 461.136C574.193 463.106 573.663 465.333 573.693 467.818C573.723 470.303 574.284 472.53 575.375 474.5C576.496 476.47 578.011 478.03 579.92 479.182C581.86 480.333 584.087 480.909 586.602 480.909C588.451 480.909 590.163 480.591 591.739 479.955C593.314 479.288 594.678 478.364 595.83 477.182C597.011 475.97 597.92 474.576 598.557 473C599.223 471.394 599.542 469.667 599.511 467.818C599.481 465.333 598.905 463.106 597.784 461.136C596.663 459.167 595.133 457.606 593.193 456.455C591.254 455.303 589.057 454.727 586.602 454.727Z" fill="#2C68A9"/>
<path d="M1038.18 720V701.818L1072.91 673.091C1075.21 671.182 1077.18 669.394 1078.82 667.727C1080.48 666.03 1081.76 664.288 1082.64 662.5C1083.55 660.712 1084 658.727 1084 656.545C1084 654.152 1083.48 652.106 1082.45 650.409C1081.45 648.712 1080.06 647.409 1078.27 646.5C1076.48 645.561 1074.42 645.091 1072.09 645.091C1069.76 645.091 1067.7 645.561 1065.91 646.5C1064.15 647.439 1062.79 648.818 1061.82 650.636C1060.85 652.455 1060.36 654.667 1060.36 657.273H1036.36C1036.36 650.727 1037.83 645.091 1040.77 640.364C1043.71 635.636 1047.86 632 1053.23 629.455C1058.59 626.909 1064.88 625.636 1072.09 625.636C1079.55 625.636 1086 626.833 1091.45 629.227C1096.94 631.591 1101.17 634.924 1104.14 639.227C1107.14 643.53 1108.64 648.576 1108.64 654.364C1108.64 657.939 1107.89 661.5 1106.41 665.045C1104.92 668.561 1102.26 672.455 1098.41 676.727C1094.56 681 1089.09 686.091 1082 692L1073.27 699.273V699.818H1109.64V720H1038.18ZM1159.84 721.273C1154.42 721.273 1149.27 720.424 1144.39 718.727C1139.54 717 1135.23 714.288 1131.48 710.591C1127.72 706.894 1124.77 702.076 1122.61 696.136C1120.49 690.197 1119.45 683 1119.48 674.545C1119.51 667 1120.48 660.212 1122.39 654.182C1124.33 648.152 1127.07 643.015 1130.61 638.773C1134.19 634.53 1138.46 631.288 1143.43 629.045C1148.4 626.773 1153.93 625.636 1160.02 625.636C1166.87 625.636 1172.9 626.955 1178.11 629.591C1183.33 632.227 1187.48 635.758 1190.57 640.182C1193.69 644.576 1195.51 649.424 1196.02 654.727H1171.11C1170.54 652.091 1169.2 650.167 1167.11 648.955C1165.05 647.712 1162.69 647.091 1160.02 647.091C1154.72 647.091 1150.83 649.394 1148.34 654C1145.89 658.606 1144.63 664.667 1144.57 672.182H1145.11C1146.3 669.333 1148.08 666.894 1150.48 664.864C1152.87 662.833 1155.66 661.273 1158.84 660.182C1162.02 659.091 1165.39 658.545 1168.93 658.545C1174.57 658.545 1179.49 659.818 1183.7 662.364C1187.95 664.909 1191.25 668.394 1193.61 672.818C1195.98 677.242 1197.14 682.303 1197.11 688C1197.14 694.667 1195.57 700.5 1192.39 705.5C1189.23 710.5 1184.86 714.379 1179.25 717.136C1173.64 719.894 1167.17 721.273 1159.84 721.273ZM1159.66 702.182C1162.17 702.182 1164.4 701.606 1166.34 700.455C1168.31 699.303 1169.84 697.727 1170.93 695.727C1172.05 693.727 1172.6 691.455 1172.57 688.909C1172.6 686.333 1172.05 684.061 1170.93 682.091C1169.84 680.091 1168.31 678.515 1166.34 677.364C1164.4 676.212 1162.17 675.636 1159.66 675.636C1157.81 675.636 1156.1 675.97 1154.52 676.636C1152.98 677.273 1151.63 678.197 1150.48 679.409C1149.33 680.591 1148.42 682 1147.75 683.636C1147.11 685.242 1146.78 687 1146.75 688.909C1146.78 691.455 1147.36 693.727 1148.48 695.727C1149.6 697.727 1151.13 699.303 1153.07 700.455C1155.01 701.606 1157.2 702.182 1159.66 702.182ZM1254.38 622.545L1224.38 734H1203.1L1233.1 622.545H1254.38ZM1301.85 722.545C1293.4 722.515 1286.09 720.561 1279.94 716.682C1273.79 712.803 1269.05 707.212 1265.72 699.909C1262.38 692.606 1260.73 683.848 1260.76 673.636C1260.79 663.394 1262.46 654.697 1265.76 647.545C1269.09 640.394 1273.82 634.955 1279.94 631.227C1286.09 627.5 1293.4 625.636 1301.85 625.636C1310.31 625.636 1317.61 627.515 1323.76 631.273C1329.91 635 1334.66 640.439 1337.99 647.591C1341.32 654.742 1342.97 663.424 1342.94 673.636C1342.94 683.909 1341.28 692.697 1337.94 700C1334.61 707.303 1329.87 712.894 1323.72 716.773C1317.59 720.621 1310.31 722.545 1301.85 722.545ZM1301.85 702C1306.22 702 1309.79 699.727 1312.58 695.182C1315.4 690.606 1316.79 683.424 1316.76 673.636C1316.76 667.242 1316.13 662.015 1314.85 657.955C1313.58 653.894 1311.82 650.894 1309.58 648.955C1307.34 646.985 1304.76 646 1301.85 646C1297.49 646 1293.93 648.212 1291.17 652.636C1288.41 657.061 1287 664.061 1286.94 673.636C1286.91 680.152 1287.53 685.515 1288.81 689.727C1290.08 693.909 1291.84 697 1294.08 699C1296.35 701 1298.94 702 1301.85 702ZM1391.17 625.636C1396.59 625.636 1401.73 626.5 1406.58 628.227C1411.43 629.924 1415.72 632.606 1419.44 636.273C1423.2 639.939 1426.14 644.727 1428.26 650.636C1430.41 656.515 1431.5 663.636 1431.53 672C1431.56 679.636 1430.61 686.5 1428.67 692.591C1426.76 698.652 1424.02 703.818 1420.44 708.091C1416.9 712.364 1412.62 715.636 1407.62 717.909C1402.66 720.152 1397.11 721.273 1390.99 721.273C1384.11 721.273 1378.06 719.955 1372.85 717.318C1367.64 714.682 1363.49 711.136 1360.4 706.682C1357.31 702.227 1355.5 697.273 1354.99 691.818H1379.9C1380.5 694.636 1381.84 696.682 1383.9 697.955C1385.96 699.197 1388.32 699.818 1390.99 699.818C1396.32 699.818 1400.22 697.515 1402.67 692.909C1405.16 688.273 1406.41 682.091 1406.44 674.364H1405.9C1404.72 677.212 1402.93 679.652 1400.53 681.682C1398.14 683.712 1395.35 685.273 1392.17 686.364C1388.99 687.455 1385.63 688 1382.08 688C1376.47 688 1371.56 686.742 1367.35 684.227C1363.14 681.682 1359.85 678.212 1357.49 673.818C1355.13 669.394 1353.93 664.364 1353.9 658.727C1353.87 652.121 1355.43 646.333 1358.58 641.364C1361.73 636.394 1366.11 632.53 1371.72 629.773C1377.32 627.015 1383.81 625.636 1391.17 625.636ZM1391.35 644.727C1388.84 644.727 1386.59 645.303 1384.62 646.455C1382.69 647.606 1381.16 649.167 1380.03 651.136C1378.94 653.106 1378.41 655.333 1378.44 657.818C1378.47 660.303 1379.03 662.53 1380.12 664.5C1381.25 666.47 1382.76 668.03 1384.67 669.182C1386.61 670.333 1388.84 670.909 1391.35 670.909C1393.2 670.909 1394.91 670.591 1396.49 669.955C1398.06 669.288 1399.43 668.364 1400.58 667.182C1401.76 665.97 1402.67 664.576 1403.31 663C1403.97 661.394 1404.29 659.667 1404.26 657.818C1404.23 655.333 1403.66 653.106 1402.53 651.136C1401.41 649.167 1399.88 647.606 1397.94 646.455C1396 645.303 1393.81 644.727 1391.35 644.727Z" fill="#ED9226"/>
</svg>
