<svg width="1440" height="876" viewBox="0 0 1440 876" fill="none" xmlns="http://www.w3.org/2000/svg">
<rect y="-3" width="1440" height="879" fill="#070000"/>
<path d="M48.79 746V681.2H62.56V746H48.79ZM71.8659 746V693.8H111.736C114.136 693.8 116.326 694.4 118.306 695.6C120.286 696.8 121.846 698.39 122.986 700.37C124.186 702.35 124.786 704.51 124.786 706.85V746H111.016V707.57H85.6359V746H71.8659ZM147.582 746C145.182 746 142.992 745.4 141.012 744.2C139.032 743 137.442 741.41 136.242 739.43C135.042 737.45 134.442 735.29 134.442 732.95V678.32H148.212V693.8H167.562V707.57H148.212V732.23H167.562V746H147.582ZM187.917 746C185.577 746 183.417 745.4 181.437 744.2C179.457 743 177.867 741.41 176.667 739.43C175.467 737.45 174.867 735.29 174.867 732.95V706.85C174.867 704.51 175.467 702.35 176.667 700.37C177.867 698.39 179.457 696.8 181.437 695.6C183.417 694.4 185.577 693.8 187.917 693.8H214.737C217.137 693.8 219.327 694.4 221.307 695.6C223.287 696.8 224.847 698.39 225.987 700.37C227.187 702.35 227.787 704.51 227.787 706.85V732.95C227.787 735.29 227.187 737.45 225.987 739.43C224.847 741.41 223.287 743 221.307 744.2C219.327 745.4 217.137 746 214.737 746H187.917ZM188.637 732.23H214.017V707.57H188.637V732.23ZM288.776 746V695.24H263.396V681.2H328.196V695.24H302.816V746H288.776ZM334.747 746V676.7H348.517V693.8H374.617C376.957 693.8 379.117 694.4 381.097 695.6C383.077 696.8 384.667 698.39 385.867 700.37C387.067 702.35 387.667 704.51 387.667 706.85V746H373.897V707.57H348.517V746H334.747ZM407.556 746C405.216 746 403.056 745.4 401.076 744.2C399.096 743 397.506 741.41 396.306 739.43C395.106 737.45 394.506 735.29 394.506 732.95V706.85C394.506 704.51 395.106 702.35 396.306 700.37C397.506 698.39 399.096 696.8 401.076 695.6C403.056 694.4 405.216 693.8 407.556 693.8H434.376C436.776 693.8 438.966 694.4 440.946 695.6C442.926 696.8 444.486 698.39 445.626 700.37C446.826 702.35 447.426 704.51 447.426 706.85V726.83H408.276V732.23H447.426V746H407.556ZM408.276 714.77H433.656V707.57H408.276V714.77ZM486.454 746V681.2H546.304V695.24H500.584V706.58H537.394V720.62H500.584V746H486.454ZM564.093 746C561.693 746 559.503 745.4 557.523 744.2C555.543 743 553.953 741.41 552.753 739.43C551.613 737.45 551.043 735.29 551.043 732.95V693.8H564.813V732.23H590.193V693.8H603.963V732.95C603.963 735.29 603.363 737.45 602.163 739.43C601.023 741.41 599.463 743 597.483 744.2C595.503 745.4 593.313 746 590.913 746H564.093ZM624.564 746C622.164 746 619.974 745.4 617.994 744.2C616.014 743 614.424 741.41 613.224 739.43C612.024 737.45 611.424 735.29 611.424 732.95V678.32H625.194V693.8H644.544V707.57H625.194V732.23H644.544V746H624.564ZM665.08 746C662.68 746 660.49 745.4 658.51 744.2C656.53 743 654.94 741.41 653.74 739.43C652.6 737.45 652.03 735.29 652.03 732.95V693.8H665.8V732.23H691.18V693.8H704.95V732.95C704.95 735.29 704.35 737.45 703.15 739.43C702.01 741.41 700.45 743 698.47 744.2C696.49 745.4 694.3 746 691.9 746H665.08ZM714.518 746V706.85C714.518 704.51 715.118 702.35 716.318 700.37C717.518 698.39 719.108 696.8 721.088 695.6C723.068 694.4 725.258 693.8 727.658 693.8H756.458V707.57H728.288V746H714.518ZM775.73 746C773.39 746 771.23 745.4 769.25 744.2C767.27 743 765.68 741.41 764.48 739.43C763.28 737.45 762.68 735.29 762.68 732.95V706.85C762.68 704.51 763.28 702.35 764.48 700.37C765.68 698.39 767.27 696.8 769.25 695.6C771.23 694.4 773.39 693.8 775.73 693.8H802.55C804.95 693.8 807.14 694.4 809.12 695.6C811.1 696.8 812.66 698.39 813.8 700.37C815 702.35 815.6 704.51 815.6 706.85V726.83H776.45V732.23H815.6V746H775.73ZM776.45 714.77H801.83V707.57H776.45V714.77ZM854.268 754.91V673.64H868.038V754.91H854.268ZM915.84 746C913.44 746 911.22 745.4 909.18 744.2C907.14 743 905.52 741.38 904.32 739.34C903.12 737.3 902.52 735.08 902.52 732.68V694.52C902.52 692.06 903.12 689.84 904.32 687.86C905.52 685.82 907.14 684.2 909.18 683C911.22 681.8 913.44 681.2 915.84 681.2H954C956.4 681.2 958.59 681.8 960.57 683C962.61 684.2 964.23 685.82 965.43 687.86C966.69 689.84 967.32 692.06 967.32 694.52V732.68C967.32 735.08 966.69 737.3 965.43 739.34C964.23 741.38 962.61 743 960.57 744.2C958.59 745.4 956.4 746 954 746H915.84ZM916.47 731.96H953.19V695.24H916.47V731.96ZM977.231 746V681.2H991.631L1027.9 724.4V681.2H1042.03V746H1027.63L991.181 702.62V746H977.231ZM1052.2 746V681.11H1066.15V731.96H1117V746H1052.2ZM1131.52 746V721.79L1101.55 681.2H1118.2L1138.54 706.76L1158.79 681.2H1175.62L1145.56 721.88V746H1131.52ZM1193.05 746C1190.65 746 1188.43 745.4 1186.39 744.2C1184.35 743 1182.73 741.38 1181.53 739.34C1180.33 737.3 1179.73 735.08 1179.73 732.68V694.52C1179.73 692.06 1180.33 689.84 1181.53 687.86C1182.73 685.82 1184.35 684.2 1186.39 683C1188.43 681.8 1190.65 681.2 1193.05 681.2H1231.21C1233.61 681.2 1235.8 681.8 1237.78 683C1239.82 684.2 1241.44 685.82 1242.64 687.86C1243.9 689.84 1244.53 692.06 1244.53 694.52V732.68C1244.53 735.08 1243.9 737.3 1242.64 739.34C1241.44 741.38 1239.82 743 1237.78 744.2C1235.8 745.4 1233.61 746 1231.21 746H1193.05ZM1193.68 731.96H1230.4V695.24H1193.68V731.96ZM1254.44 746V681.2H1268.84L1305.11 724.4V681.2H1319.24V746H1304.84L1268.39 702.62V746H1254.44ZM1329.5 746V681.2H1389.35V695.24H1343.63V706.58H1380.44V720.62H1343.63V731.96H1389.35V746H1329.5Z" fill="white"/>
<path d="M974 -3H459V215H974V-3Z" fill="#EA5549"/>
<path d="M1440 0H972.064V214.736H1440V0Z" fill="#FCC800"/>
<path d="M1440 215H456V429H1440V215Z" fill="#009FDE"/>
<path d="M480.447 268.455H505.976L525.965 308.018H526.796L546.786 268.455H572.315L537.737 331.423V363H515.024V331.423L480.447 268.455ZM664.91 315.727C664.91 326.13 662.909 334.947 658.908 342.18C654.907 349.412 649.491 354.906 642.658 358.661C635.857 362.415 628.224 364.293 619.76 364.293C611.266 364.293 603.618 362.4 596.817 358.614C590.015 354.829 584.614 349.335 580.613 342.134C576.643 334.901 574.657 326.099 574.657 315.727C574.657 305.325 576.643 296.507 580.613 289.275C584.614 282.042 590.015 276.549 596.817 272.794C603.618 269.039 611.266 267.162 619.76 267.162C628.224 267.162 635.857 269.039 642.658 272.794C649.491 276.549 654.907 282.042 658.908 289.275C662.909 296.507 664.91 305.325 664.91 315.727ZM641.55 315.727C641.55 309.572 640.673 304.371 638.919 300.124C637.195 295.876 634.702 292.66 631.44 290.475C628.209 288.29 624.315 287.197 619.76 287.197C615.236 287.197 611.343 288.29 608.081 290.475C604.818 292.66 602.31 295.876 600.556 300.124C598.832 304.371 597.971 309.572 597.971 315.727C597.971 321.883 598.832 327.084 600.556 331.331C602.31 335.578 604.818 338.794 608.081 340.979C611.343 343.165 615.236 344.257 619.76 344.257C624.315 344.257 628.209 343.165 631.44 340.979C634.702 338.794 637.195 335.578 638.919 331.331C640.673 327.084 641.55 321.883 641.55 315.727ZM735.449 268.455H758.255V329.438C758.255 336.486 756.577 342.626 753.223 347.858C749.868 353.059 745.19 357.091 739.189 359.953C733.187 362.785 726.216 364.2 718.276 364.2C710.243 364.2 703.226 362.785 697.225 359.953C691.224 357.091 686.561 353.059 683.237 347.858C679.913 342.626 678.251 336.486 678.251 329.438V268.455H701.103V327.453C701.103 330.715 701.811 333.624 703.226 336.178C704.673 338.733 706.689 340.733 709.274 342.18C711.859 343.626 714.86 344.349 718.276 344.349C721.692 344.349 724.678 343.626 727.232 342.18C729.817 340.733 731.833 338.733 733.28 336.178C734.726 333.624 735.449 330.715 735.449 327.453V268.455ZM772.577 363V268.455H811.633C818.711 268.455 824.821 269.732 829.96 272.286C835.131 274.81 839.116 278.442 841.917 283.181C844.718 287.89 846.118 293.476 846.118 299.939C846.118 306.494 844.687 312.065 841.825 316.651C838.962 321.205 834.9 324.683 829.637 327.084C824.374 329.454 818.142 330.638 810.94 330.638H786.242V312.634H806.693C810.14 312.634 813.018 312.188 815.326 311.295C817.665 310.372 819.435 308.987 820.635 307.141C821.835 305.263 822.435 302.863 822.435 299.939C822.435 297.015 821.835 294.599 820.635 292.691C819.435 290.752 817.665 289.306 815.326 288.352C812.987 287.367 810.109 286.874 806.693 286.874H795.429V363H772.577ZM825.805 319.79L849.349 363H824.42L801.338 319.79H825.805ZM886.581 363V268.455H951.12V287.013H909.433V306.402H947.011V325.006H909.433V363H886.581ZM1019.82 268.455H1042.63V329.438C1042.63 336.486 1040.95 342.626 1037.6 347.858C1034.24 353.059 1029.57 357.091 1023.56 359.953C1017.56 362.785 1010.59 364.2 1002.65 364.2C994.618 364.2 987.601 362.785 981.6 359.953C975.599 357.091 970.936 353.059 967.612 347.858C964.288 342.626 962.626 336.486 962.626 329.438V268.455H985.478V327.453C985.478 330.715 986.186 333.624 987.601 336.178C989.048 338.733 991.064 340.733 993.649 342.18C996.234 343.626 999.235 344.349 1002.65 344.349C1006.07 344.349 1009.05 343.626 1011.61 342.18C1014.19 340.733 1016.21 338.733 1017.65 336.178C1019.1 333.624 1019.82 330.715 1019.82 327.453V268.455ZM1053.86 287.013V268.455H1133.77V287.013H1105.1V363H1082.57V287.013H1053.86ZM1202.13 268.455H1224.93V329.438C1224.93 336.486 1223.26 342.626 1219.9 347.858C1216.55 353.059 1211.87 357.091 1205.87 359.953C1199.87 362.785 1192.9 364.2 1184.96 364.2C1176.92 364.2 1169.91 362.785 1163.9 359.953C1157.9 357.091 1153.24 353.059 1149.92 347.858C1146.59 342.626 1144.93 336.486 1144.93 329.438V268.455H1167.78V327.453C1167.78 330.715 1168.49 333.624 1169.91 336.178C1171.35 338.733 1173.37 340.733 1175.95 342.18C1178.54 343.626 1181.54 344.349 1184.96 344.349C1188.37 344.349 1191.36 343.626 1193.91 342.18C1196.5 340.733 1198.51 338.733 1199.96 336.178C1201.41 333.624 1202.13 330.715 1202.13 327.453V268.455ZM1239.26 363V268.455H1278.31C1285.39 268.455 1291.5 269.732 1296.64 272.286C1301.81 274.81 1305.8 278.442 1308.6 283.181C1311.4 287.89 1312.8 293.476 1312.8 299.939C1312.8 306.494 1311.37 312.065 1308.5 316.651C1305.64 321.205 1301.58 324.683 1296.32 327.084C1291.05 329.454 1284.82 330.638 1277.62 330.638H1252.92V312.634H1273.37C1276.82 312.634 1279.7 312.188 1282.01 311.295C1284.34 310.372 1286.11 308.987 1287.31 307.141C1288.51 305.263 1289.12 302.863 1289.12 299.939C1289.12 297.015 1288.51 294.599 1287.31 292.691C1286.11 290.752 1284.34 289.306 1282.01 288.352C1279.67 287.367 1276.79 286.874 1273.37 286.874H1262.11V363H1239.26ZM1292.49 319.79L1316.03 363H1291.1L1268.02 319.79H1292.49ZM1325.33 363V268.455H1391.25V287.013H1348.18V306.402H1387.88V325.006H1348.18V344.442H1391.25V363H1325.33Z" fill="#070000"/>
<path d="M570.976 97.0245H547.893C547.586 94.6547 546.955 92.5157 546.001 90.6076C545.047 88.6994 543.785 87.0683 542.215 85.7141C540.646 84.3599 538.784 83.3289 536.629 82.6211C534.506 81.8824 532.151 81.5131 529.566 81.5131C524.98 81.5131 521.026 82.6365 517.702 84.8831C514.409 87.1298 511.87 90.3768 510.085 94.6239C508.33 98.8711 507.453 104.011 507.453 110.043C507.453 116.321 508.346 121.584 510.131 125.831C511.946 130.048 514.486 133.233 517.748 135.387C521.041 137.511 524.934 138.573 529.428 138.573C531.951 138.573 534.244 138.25 536.306 137.603C538.399 136.957 540.23 136.018 541.8 134.787C543.4 133.525 544.708 132.002 545.724 130.217C546.77 128.401 547.493 126.354 547.893 124.077L570.976 124.216C570.576 128.401 569.36 132.525 567.329 136.588C565.328 140.65 562.574 144.359 559.065 147.713C555.557 151.037 551.279 153.684 546.232 155.654C541.215 157.623 535.46 158.608 528.966 158.608C520.41 158.608 512.747 156.731 505.976 152.976C499.236 149.191 493.911 143.682 490.003 136.449C486.094 129.217 484.14 120.415 484.14 110.043C484.14 99.6405 486.125 90.823 490.095 83.5905C494.065 76.358 499.436 70.8644 506.207 67.1097C512.978 63.355 520.564 61.4776 528.966 61.4776C534.69 61.4776 539.984 62.2778 544.847 63.8782C549.709 65.4478 553.987 67.756 557.68 70.8029C561.374 73.819 564.374 77.5276 566.683 81.9286C568.991 86.3296 570.422 91.3616 570.976 97.0245ZM673.289 110.043C673.289 120.445 671.288 129.263 667.287 136.495C663.286 143.728 657.869 149.221 651.037 152.976C644.236 156.731 636.603 158.608 628.139 158.608C619.645 158.608 611.997 156.716 605.195 152.93C598.394 149.145 592.993 143.651 588.992 136.449C585.021 129.217 583.036 120.415 583.036 110.043C583.036 99.6405 585.021 90.823 588.992 83.5905C592.993 76.358 598.394 70.8644 605.195 67.1097C611.997 63.355 619.645 61.4776 628.139 61.4776C636.603 61.4776 644.236 63.355 651.037 67.1097C657.869 70.8644 663.286 76.358 667.287 83.5905C671.288 90.823 673.289 99.6405 673.289 110.043ZM649.929 110.043C649.929 103.888 649.052 98.6864 647.298 94.4393C645.574 90.1921 643.081 86.9759 639.819 84.7908C636.588 82.6057 632.694 81.5131 628.139 81.5131C623.615 81.5131 619.722 82.6057 616.46 84.7908C613.197 86.9759 610.689 90.1921 608.935 94.4393C607.211 98.6864 606.35 103.888 606.35 110.043C606.35 116.198 607.211 121.399 608.935 125.647C610.689 129.894 613.197 133.11 616.46 135.295C619.722 137.48 623.615 138.573 628.139 138.573C632.694 138.573 636.588 137.48 639.819 135.295C643.081 133.11 645.574 129.894 647.298 125.647C649.052 121.399 649.929 116.198 649.929 110.043ZM721.577 157.316H686.63V62.7702H721.531C731.164 62.7702 739.458 64.663 746.414 68.4485C753.4 72.2032 758.786 77.6199 762.571 84.6985C766.357 91.7463 768.249 100.179 768.249 109.997C768.249 119.845 766.357 128.309 762.571 135.387C758.816 142.466 753.446 147.898 746.46 151.684C739.473 155.438 731.179 157.316 721.577 157.316ZM709.482 137.834H720.7C725.993 137.834 730.471 136.942 734.134 135.157C737.827 133.341 740.612 130.402 742.49 126.339C744.398 122.246 745.352 116.798 745.352 109.997C745.352 103.195 744.398 97.7785 742.49 93.7468C740.581 89.6843 737.765 86.7605 734.041 84.9755C730.348 83.1597 725.793 82.2517 720.377 82.2517H709.482V137.834ZM781.591 157.316V62.7702H847.514V81.3285H804.443V100.718H844.144V119.322H804.443V138.757H847.514V157.316H781.591Z" fill="#070000"/>
<path d="M1020.98 152.842V136.408L1055.47 106.216C1058.05 103.877 1060.25 101.738 1062.07 99.799C1063.89 97.8293 1065.27 95.8596 1066.23 93.8899C1067.18 91.8894 1067.66 89.7197 1067.66 87.3806C1067.66 84.7646 1067.09 82.5333 1065.95 80.6867C1064.81 78.8094 1063.24 77.3629 1061.24 76.3473C1059.24 75.3316 1056.95 74.8238 1054.36 74.8238C1051.74 74.8238 1049.45 75.3624 1047.48 76.4396C1045.51 77.486 1043.97 79.0094 1042.87 81.0099C1041.79 83.0104 1041.25 85.4417 1041.25 88.3039H1019.6C1019.6 81.8716 1021.05 76.3165 1023.94 71.6385C1026.83 66.9604 1030.89 63.3596 1036.13 60.8359C1041.39 58.2814 1047.5 57.0042 1054.45 57.0042C1061.62 57.0042 1067.86 58.2045 1073.15 60.6051C1078.44 63.0056 1082.54 66.3603 1085.43 70.669C1088.35 74.9469 1089.82 79.9173 1089.82 85.5802C1089.82 89.1811 1089.09 92.7511 1087.65 96.2904C1086.2 99.8297 1083.6 103.738 1079.84 108.016C1076.12 112.294 1070.83 117.419 1063.96 123.389L1052.65 133.822V134.423H1090.97V152.842H1020.98ZM1142.99 155.151C1134.74 155.151 1127.63 153.196 1121.66 149.288C1115.69 145.348 1111.09 139.701 1107.85 132.345C1104.62 124.959 1103.02 116.08 1103.05 105.708C1103.08 95.3364 1104.7 86.5343 1107.9 79.3018C1111.13 72.0385 1115.72 66.5142 1121.66 62.7286C1127.63 58.9124 1134.74 57.0042 1142.99 57.0042C1151.23 57.0042 1158.34 58.9124 1164.31 62.7286C1170.32 66.5142 1174.93 72.0385 1178.16 79.3018C1181.39 86.5651 1182.99 95.3671 1182.96 105.708C1182.96 116.111 1181.35 125.005 1178.12 132.391C1174.89 139.778 1170.28 145.425 1164.31 149.334C1158.37 153.212 1151.26 155.151 1142.99 155.151ZM1142.99 136.454C1147.91 136.454 1151.9 133.946 1154.94 128.929C1157.99 123.882 1159.5 116.141 1159.47 105.708C1159.47 98.8757 1158.77 93.2436 1157.39 88.8117C1156 84.3491 1154.08 81.0253 1151.62 78.8402C1149.16 76.655 1146.28 75.5625 1142.99 75.5625C1138.09 75.5625 1134.14 78.04 1131.12 82.995C1128.11 87.9192 1126.58 95.4902 1126.55 105.708C1126.52 112.633 1127.18 118.373 1128.54 122.928C1129.92 127.482 1131.86 130.883 1134.35 133.13C1136.85 135.346 1139.72 136.454 1142.99 136.454ZM1196.05 152.842V136.408L1230.54 106.216C1233.12 103.877 1235.32 101.738 1237.14 99.799C1238.95 97.8293 1240.34 95.8596 1241.29 93.8899C1242.25 91.8894 1242.72 89.7197 1242.72 87.3806C1242.72 84.7646 1242.16 82.5333 1241.02 80.6867C1239.88 78.8094 1238.31 77.3629 1236.31 76.3473C1234.31 75.3316 1232.01 74.8238 1229.43 74.8238C1226.81 74.8238 1224.52 75.3624 1222.55 76.4396C1220.58 77.486 1219.04 79.0094 1217.93 81.0099C1216.86 83.0104 1216.32 85.4417 1216.32 88.3039H1194.67C1194.67 81.8716 1196.11 76.3165 1199.01 71.6385C1201.9 66.9604 1205.96 63.3596 1211.19 60.8359C1216.46 58.2814 1222.57 57.0042 1229.52 57.0042C1236.69 57.0042 1242.92 58.2045 1248.22 60.6051C1253.51 63.0056 1257.6 66.3603 1260.5 70.669C1263.42 74.9469 1264.88 79.9173 1264.88 85.5802C1264.88 89.1811 1264.16 92.7511 1262.71 96.2904C1261.27 99.8297 1258.67 103.738 1254.91 108.016C1251.19 112.294 1245.89 117.419 1239.03 123.389L1227.72 133.822V134.423H1266.04V152.842H1196.05ZM1275.77 137.146V119.327L1314.5 58.2968H1330.33V82.4872H1321.15L1298.48 118.403V119.142H1354.57V137.146H1275.77ZM1321.42 152.842V131.699L1321.89 123.897V58.2968H1343.26V152.842H1321.42Z" fill="#070000"/>
<path d="M459 -3H-3V429H459V-3Z" fill="#EFEFEF"/>
<path d="M378.129 163.529C337.781 148.14 296.969 149.75 286.604 167.824C276.147 185.987 291.324 229.023 320.105 264.722C348.793 300.422 389.42 299.259 411.815 260.249C433.84 221.418 418.478 178.829 378.222 163.529" fill="#F49C00"/>
<path d="M172.683 175.965C208.497 199.676 248.661 206.744 262.912 191.444C277.257 175.965 272.352 130.782 252.548 89.8033C232.743 48.8248 192.95 41.3091 162.133 74.5034C131.779 107.698 136.961 152.434 172.683 175.965Z" fill="#2267B2"/>
<path d="M301.132 300.511C295.394 258.907 274.017 225.265 252.732 225.265C231.262 225.265 199.797 259.086 181.473 300.69C163.15 342.295 183.972 376.026 230.151 375.937C275.96 375.668 306.962 341.937 301.224 300.511" fill="#E60013"/>
<path d="M137.517 192.428C130.206 192.428 125.301 196.812 125.301 203.254V209.786H142.699C142.699 209.786 143.255 265.169 142.699 270.985C142.144 276.801 140.478 286.196 129.743 291.206C120.489 295.501 120.304 299.527 119.656 303.106C118.916 307.758 119.749 308.385 123.265 307.49C137.054 304.18 151.769 298.901 159.172 285.659C163.244 278.501 164.817 270.717 164.817 258.996V209.786C172.128 209.786 177.496 205.133 177.496 198.96V192.428H137.517Z" fill="#070000"/>
<path d="M118.268 267.049C118.268 267.049 104.294 286.375 77.2712 286.375C50.2486 286.375 28.3159 265.707 28.3159 238.328C28.3159 210.95 49.3232 189.655 77.2712 189.655C105.219 189.655 117.898 208.981 117.898 208.981C117.898 208.981 110.494 216.676 103.368 216.676C99.8518 216.676 97.2606 215.155 94.2992 213.365C90.2273 210.95 85.6927 208.265 77.3638 208.265C61.5389 208.265 48.5828 221.776 48.5828 238.418C48.5828 255.06 61.4464 267.944 77.3638 267.944C86.8032 267.944 91.2453 265.349 95.1321 263.023C97.9084 261.412 100.5 259.802 104.294 259.802C112.345 259.802 118.36 267.049 118.36 267.049H118.268Z" fill="#070000"/>
<rect x="-3" y="429" width="1443" height="114" fill="white"/>
<path d="M116.054 523.705C109.963 523.705 104.713 522.261 100.304 519.375C95.8949 516.466 92.4972 512.295 90.1108 506.864C87.7244 501.409 86.5426 494.852 86.5653 487.193C86.5881 479.534 87.7813 473.034 90.1449 467.693C92.5313 462.33 95.9176 458.25 100.304 455.455C104.713 452.636 109.963 451.227 116.054 451.227C122.145 451.227 127.395 452.636 131.804 455.455C136.236 458.25 139.645 462.33 142.031 467.693C144.418 473.057 145.599 479.557 145.577 487.193C145.577 494.875 144.384 501.443 141.997 506.898C139.611 512.352 136.213 516.523 131.804 519.409C127.418 522.273 122.168 523.705 116.054 523.705ZM116.054 509.898C119.69 509.898 122.634 508.045 124.884 504.341C127.134 500.614 128.247 494.898 128.224 487.193C128.224 482.148 127.713 477.989 126.69 474.716C125.668 471.42 124.247 468.966 122.429 467.352C120.611 465.739 118.486 464.932 116.054 464.932C112.44 464.932 109.52 466.761 107.293 470.42C105.065 474.057 103.94 479.648 103.918 487.193C103.895 492.307 104.384 496.545 105.384 499.909C106.406 503.273 107.838 505.784 109.679 507.443C111.52 509.08 113.645 509.898 116.054 509.898ZM187.526 452.182V522H170.685V467.932H170.276L154.662 477.477V462.886L171.878 452.182H187.526ZM235.415 448.909L212.915 532.5H198.699L221.199 448.909H235.415ZM270.366 523.705C264.276 523.705 259.026 522.261 254.616 519.375C250.207 516.466 246.81 512.295 244.423 506.864C242.037 501.409 240.855 494.852 240.878 487.193C240.901 479.534 242.094 473.034 244.457 467.693C246.844 462.33 250.23 458.25 254.616 455.455C259.026 452.636 264.276 451.227 270.366 451.227C276.457 451.227 281.707 452.636 286.116 455.455C290.548 458.25 293.957 462.33 296.344 467.693C298.73 473.057 299.912 479.557 299.889 487.193C299.889 494.875 298.696 501.443 296.31 506.898C293.923 512.352 290.526 516.523 286.116 519.409C281.73 522.273 276.48 523.705 270.366 523.705ZM270.366 509.898C274.003 509.898 276.946 508.045 279.196 504.341C281.446 500.614 282.56 494.898 282.537 487.193C282.537 482.148 282.026 477.989 281.003 474.716C279.98 471.42 278.56 468.966 276.741 467.352C274.923 465.739 272.798 464.932 270.366 464.932C266.753 464.932 263.832 466.761 261.605 470.42C259.378 474.057 258.253 479.648 258.23 487.193C258.207 492.307 258.696 496.545 259.696 499.909C260.719 503.273 262.151 505.784 263.991 507.443C265.832 509.08 267.957 509.898 270.366 509.898ZM335.838 451.227C339.656 451.227 343.304 451.852 346.781 453.102C350.259 454.33 353.361 456.295 356.088 459C358.815 461.682 360.963 465.216 362.531 469.602C364.099 473.989 364.884 479.341 364.884 485.659C364.906 491.477 364.224 496.693 362.838 501.307C361.452 505.898 359.463 509.807 356.872 513.034C354.304 516.261 351.213 518.727 347.599 520.432C343.986 522.114 339.952 522.955 335.497 522.955C330.588 522.955 326.259 522.011 322.509 520.125C318.781 518.216 315.793 515.648 313.543 512.42C311.315 509.193 309.986 505.58 309.554 501.58H326.156C326.679 503.898 327.781 505.648 329.463 506.83C331.145 507.989 333.156 508.568 335.497 508.568C339.77 508.568 342.963 506.716 345.077 503.011C347.19 499.307 348.247 494.273 348.247 487.909H347.838C346.861 490 345.474 491.795 343.679 493.295C341.906 494.795 339.849 495.943 337.509 496.739C335.168 497.534 332.702 497.932 330.111 497.932C325.929 497.932 322.236 496.977 319.031 495.068C315.849 493.159 313.349 490.534 311.531 487.193C309.736 483.852 308.827 480.034 308.804 475.739C308.781 470.92 309.906 466.67 312.179 462.989C314.452 459.284 317.622 456.398 321.69 454.33C325.759 452.239 330.474 451.205 335.838 451.227ZM335.94 464.182C333.849 464.182 331.986 464.67 330.349 465.648C328.736 466.625 327.463 467.943 326.531 469.602C325.599 471.261 325.145 473.125 325.168 475.193C325.19 477.261 325.656 479.125 326.565 480.784C327.497 482.443 328.759 483.761 330.349 484.739C331.963 485.716 333.804 486.205 335.872 486.205C337.418 486.205 338.849 485.92 340.168 485.352C341.486 484.784 342.634 484 343.611 483C344.588 481.977 345.349 480.795 345.895 479.455C346.463 478.114 346.736 476.682 346.713 475.159C346.69 473.136 346.213 471.295 345.281 469.636C344.349 467.977 343.065 466.659 341.429 465.682C339.815 464.682 337.986 464.182 335.94 464.182ZM406.602 448.909L384.102 532.5H369.886L392.386 448.909H406.602ZM412.679 522V509.864L438.145 487.568C440.054 485.841 441.679 484.261 443.02 482.83C444.361 481.375 445.384 479.92 446.088 478.466C446.793 476.989 447.145 475.386 447.145 473.659C447.145 471.727 446.724 470.08 445.884 468.716C445.043 467.33 443.884 466.261 442.406 465.511C440.929 464.761 439.236 464.386 437.327 464.386C435.395 464.386 433.702 464.784 432.247 465.58C430.793 466.352 429.656 467.477 428.838 468.955C428.043 470.432 427.645 472.227 427.645 474.341H411.656C411.656 469.591 412.724 465.489 414.861 462.034C416.997 458.58 419.997 455.92 423.861 454.057C427.747 452.17 432.259 451.227 437.395 451.227C442.69 451.227 447.293 452.114 451.202 453.886C455.111 455.659 458.134 458.136 460.27 461.318C462.429 464.477 463.509 468.148 463.509 472.33C463.509 474.989 462.974 477.625 461.906 480.239C460.838 482.852 458.918 485.739 456.145 488.898C453.395 492.057 449.486 495.841 444.418 500.25L436.065 507.955V508.398H464.361V522H412.679ZM502.773 523.705C496.682 523.705 491.432 522.261 487.023 519.375C482.614 516.466 479.216 512.295 476.83 506.864C474.443 501.409 473.261 494.852 473.284 487.193C473.307 479.534 474.5 473.034 476.864 467.693C479.25 462.33 482.636 458.25 487.023 455.455C491.432 452.636 496.682 451.227 502.773 451.227C508.864 451.227 514.114 452.636 518.523 455.455C522.955 458.25 526.364 462.33 528.75 467.693C531.136 473.057 532.318 479.557 532.295 487.193C532.295 494.875 531.102 501.443 528.716 506.898C526.33 512.352 522.932 516.523 518.523 519.409C514.136 522.273 508.886 523.705 502.773 523.705ZM502.773 509.898C506.409 509.898 509.352 508.045 511.602 504.341C513.852 500.614 514.966 494.898 514.943 487.193C514.943 482.148 514.432 477.989 513.409 474.716C512.386 471.42 510.966 468.966 509.148 467.352C507.33 465.739 505.205 464.932 502.773 464.932C499.159 464.932 496.239 466.761 494.011 470.42C491.784 474.057 490.659 479.648 490.636 487.193C490.614 492.307 491.102 496.545 492.102 499.909C493.125 503.273 494.557 505.784 496.398 507.443C498.239 509.08 500.364 509.898 502.773 509.898ZM541.96 522V509.864L567.426 487.568C569.335 485.841 570.96 484.261 572.301 482.83C573.642 481.375 574.665 479.92 575.369 478.466C576.074 476.989 576.426 475.386 576.426 473.659C576.426 471.727 576.006 470.08 575.165 468.716C574.324 467.33 573.165 466.261 571.688 465.511C570.21 464.761 568.517 464.386 566.608 464.386C564.676 464.386 562.983 464.784 561.528 465.58C560.074 466.352 558.938 467.477 558.119 468.955C557.324 470.432 556.926 472.227 556.926 474.341H540.938C540.938 469.591 542.006 465.489 544.142 462.034C546.278 458.58 549.278 455.92 553.142 454.057C557.028 452.17 561.54 451.227 566.676 451.227C571.972 451.227 576.574 452.114 580.483 453.886C584.392 455.659 587.415 458.136 589.551 461.318C591.71 464.477 592.79 468.148 592.79 472.33C592.79 474.989 592.256 477.625 591.188 480.239C590.119 482.852 588.199 485.739 585.426 488.898C582.676 492.057 578.767 495.841 573.699 500.25L565.347 507.955V508.398H593.642V522H541.96ZM600.827 510.409V497.25L629.429 452.182H641.122V470.045H634.338L617.599 496.568V497.114H659.02V510.409H600.827ZM634.543 522V506.386L634.884 500.625V452.182H650.668V522H634.543ZM722.139 480.682V493.5H689.821V480.682H722.139ZM754.398 522V509.864L779.864 487.568C781.773 485.841 783.398 484.261 784.739 482.83C786.08 481.375 787.102 479.92 787.807 478.466C788.511 476.989 788.864 475.386 788.864 473.659C788.864 471.727 788.443 470.08 787.602 468.716C786.761 467.33 785.602 466.261 784.125 465.511C782.648 464.761 780.955 464.386 779.045 464.386C777.114 464.386 775.42 464.784 773.966 465.58C772.511 466.352 771.375 467.477 770.557 468.955C769.761 470.432 769.364 472.227 769.364 474.341H753.375C753.375 469.591 754.443 465.489 756.58 462.034C758.716 458.58 761.716 455.92 765.58 454.057C769.466 452.17 773.977 451.227 779.114 451.227C784.409 451.227 789.011 452.114 792.92 453.886C796.83 455.659 799.852 458.136 801.989 461.318C804.148 464.477 805.227 468.148 805.227 472.33C805.227 474.989 804.693 477.625 803.625 480.239C802.557 482.852 800.636 485.739 797.864 488.898C795.114 492.057 791.205 495.841 786.136 500.25L777.784 507.955V508.398H806.08V522H754.398ZM843.605 522.955C839.787 522.955 836.128 522.341 832.628 521.114C829.128 519.864 826.014 517.886 823.287 515.182C820.56 512.455 818.412 508.886 816.844 504.477C815.276 500.045 814.503 494.648 814.526 488.284C814.548 482.534 815.253 477.375 816.639 472.807C818.026 468.216 820.003 464.318 822.571 461.114C825.162 457.909 828.253 455.466 831.844 453.784C835.457 452.08 839.491 451.227 843.946 451.227C848.832 451.227 853.139 452.182 856.866 454.091C860.616 455.977 863.616 458.523 865.866 461.727C868.116 464.909 869.446 468.455 869.855 472.364H853.253C852.753 470.159 851.651 468.489 849.946 467.352C848.264 466.193 846.264 465.614 843.946 465.614C839.673 465.614 836.48 467.466 834.366 471.17C832.276 474.875 831.207 479.83 831.162 486.034H831.605C832.56 483.943 833.935 482.148 835.73 480.648C837.526 479.148 839.582 478 841.901 477.205C844.241 476.386 846.719 475.977 849.332 475.977C853.514 475.977 857.207 476.943 860.412 478.875C863.616 480.807 866.128 483.455 867.946 486.818C869.764 490.159 870.662 493.989 870.639 498.307C870.662 503.17 869.526 507.466 867.23 511.193C864.935 514.898 861.753 517.784 857.685 519.852C853.639 521.92 848.946 522.955 843.605 522.955ZM843.503 510C845.571 510 847.423 509.511 849.06 508.534C850.696 507.557 851.98 506.227 852.912 504.545C853.844 502.864 854.298 500.966 854.276 498.852C854.298 496.716 853.844 494.818 852.912 493.159C852.003 491.5 850.73 490.182 849.094 489.205C847.48 488.227 845.628 487.739 843.537 487.739C842.014 487.739 840.594 488.023 839.276 488.591C837.957 489.159 836.81 489.955 835.832 490.977C834.878 491.977 834.128 493.159 833.582 494.523C833.037 495.864 832.753 497.318 832.73 498.886C832.753 500.955 833.23 502.83 834.162 504.511C835.094 506.193 836.366 507.534 837.98 508.534C839.594 509.511 841.435 510 843.503 510ZM912.665 448.909L890.165 532.5H875.949L898.449 448.909H912.665ZM947.616 523.705C941.526 523.705 936.276 522.261 931.866 519.375C927.457 516.466 924.06 512.295 921.673 506.864C919.287 501.409 918.105 494.852 918.128 487.193C918.151 479.534 919.344 473.034 921.707 467.693C924.094 462.33 927.48 458.25 931.866 455.455C936.276 452.636 941.526 451.227 947.616 451.227C953.707 451.227 958.957 452.636 963.366 455.455C967.798 458.25 971.207 462.33 973.594 467.693C975.98 473.057 977.162 479.557 977.139 487.193C977.139 494.875 975.946 501.443 973.56 506.898C971.173 512.352 967.776 516.523 963.366 519.409C958.98 522.273 953.73 523.705 947.616 523.705ZM947.616 509.898C951.253 509.898 954.196 508.045 956.446 504.341C958.696 500.614 959.81 494.898 959.787 487.193C959.787 482.148 959.276 477.989 958.253 474.716C957.23 471.42 955.81 468.966 953.991 467.352C952.173 465.739 950.048 464.932 947.616 464.932C944.003 464.932 941.082 466.761 938.855 470.42C936.628 474.057 935.503 479.648 935.48 487.193C935.457 492.307 935.946 496.545 936.946 499.909C937.969 503.273 939.401 505.784 941.241 507.443C943.082 509.08 945.207 509.898 947.616 509.898ZM1013.09 451.227C1016.91 451.227 1020.55 451.852 1024.03 453.102C1027.51 454.33 1030.61 456.295 1033.34 459C1036.07 461.682 1038.21 465.216 1039.78 469.602C1041.35 473.989 1042.13 479.341 1042.13 485.659C1042.16 491.477 1041.47 496.693 1040.09 501.307C1038.7 505.898 1036.71 509.807 1034.12 513.034C1031.55 516.261 1028.46 518.727 1024.85 520.432C1021.24 522.114 1017.2 522.955 1012.75 522.955C1007.84 522.955 1003.51 522.011 999.759 520.125C996.031 518.216 993.043 515.648 990.793 512.42C988.565 509.193 987.236 505.58 986.804 501.58H1003.41C1003.93 503.898 1005.03 505.648 1006.71 506.83C1008.39 507.989 1010.41 508.568 1012.75 508.568C1017.02 508.568 1020.21 506.716 1022.33 503.011C1024.44 499.307 1025.5 494.273 1025.5 487.909H1025.09C1024.11 490 1022.72 491.795 1020.93 493.295C1019.16 494.795 1017.1 495.943 1014.76 496.739C1012.42 497.534 1009.95 497.932 1007.36 497.932C1003.18 497.932 999.486 496.977 996.281 495.068C993.099 493.159 990.599 490.534 988.781 487.193C986.986 483.852 986.077 480.034 986.054 475.739C986.031 470.92 987.156 466.67 989.429 462.989C991.702 459.284 994.872 456.398 998.94 454.33C1003.01 452.239 1007.72 451.205 1013.09 451.227ZM1013.19 464.182C1011.1 464.182 1009.24 464.67 1007.6 465.648C1005.99 466.625 1004.71 467.943 1003.78 469.602C1002.85 471.261 1002.39 473.125 1002.42 475.193C1002.44 477.261 1002.91 479.125 1003.82 480.784C1004.75 482.443 1006.01 483.761 1007.6 484.739C1009.21 485.716 1011.05 486.205 1013.12 486.205C1014.67 486.205 1016.1 485.92 1017.42 485.352C1018.74 484.784 1019.88 484 1020.86 483C1021.84 481.977 1022.6 480.795 1023.14 479.455C1023.71 478.114 1023.99 476.682 1023.96 475.159C1023.94 473.136 1023.46 471.295 1022.53 469.636C1021.6 467.977 1020.32 466.659 1018.68 465.682C1017.07 464.682 1015.24 464.182 1013.19 464.182ZM1083.85 448.909L1061.35 532.5H1047.14L1069.64 448.909H1083.85ZM1089.93 522V509.864L1115.39 487.568C1117.3 485.841 1118.93 484.261 1120.27 482.83C1121.61 481.375 1122.63 479.92 1123.34 478.466C1124.04 476.989 1124.39 475.386 1124.39 473.659C1124.39 471.727 1123.97 470.08 1123.13 468.716C1122.29 467.33 1121.13 466.261 1119.66 465.511C1118.18 464.761 1116.49 464.386 1114.58 464.386C1112.64 464.386 1110.95 464.784 1109.5 465.58C1108.04 466.352 1106.91 467.477 1106.09 468.955C1105.29 470.432 1104.89 472.227 1104.89 474.341H1088.91C1088.91 469.591 1089.97 465.489 1092.11 462.034C1094.25 458.58 1097.25 455.92 1101.11 454.057C1105 452.17 1109.51 451.227 1114.64 451.227C1119.94 451.227 1124.54 452.114 1128.45 453.886C1132.36 455.659 1135.38 458.136 1137.52 461.318C1139.68 464.477 1140.76 468.148 1140.76 472.33C1140.76 474.989 1140.22 477.625 1139.16 480.239C1138.09 482.852 1136.17 485.739 1133.39 488.898C1130.64 492.057 1126.74 495.841 1121.67 500.25L1113.32 507.955V508.398H1141.61V522H1089.93ZM1180.02 523.705C1173.93 523.705 1168.68 522.261 1164.27 519.375C1159.86 516.466 1156.47 512.295 1154.08 506.864C1151.69 501.409 1150.51 494.852 1150.53 487.193C1150.56 479.534 1151.75 473.034 1154.11 467.693C1156.5 462.33 1159.89 458.25 1164.27 455.455C1168.68 452.636 1173.93 451.227 1180.02 451.227C1186.11 451.227 1191.36 452.636 1195.77 455.455C1200.2 458.25 1203.61 462.33 1206 467.693C1208.39 473.057 1209.57 479.557 1209.55 487.193C1209.55 494.875 1208.35 501.443 1205.97 506.898C1203.58 512.352 1200.18 516.523 1195.77 519.409C1191.39 522.273 1186.14 523.705 1180.02 523.705ZM1180.02 509.898C1183.66 509.898 1186.6 508.045 1188.85 504.341C1191.1 500.614 1192.22 494.898 1192.19 487.193C1192.19 482.148 1191.68 477.989 1190.66 474.716C1189.64 471.42 1188.22 468.966 1186.4 467.352C1184.58 465.739 1182.45 464.932 1180.02 464.932C1176.41 464.932 1173.49 466.761 1171.26 470.42C1169.03 474.057 1167.91 479.648 1167.89 487.193C1167.86 492.307 1168.35 496.545 1169.35 499.909C1170.38 503.273 1171.81 505.784 1173.65 507.443C1175.49 509.08 1177.61 509.898 1180.02 509.898ZM1219.21 522V509.864L1244.68 487.568C1246.59 485.841 1248.21 484.261 1249.55 482.83C1250.89 481.375 1251.91 479.92 1252.62 478.466C1253.32 476.989 1253.68 475.386 1253.68 473.659C1253.68 471.727 1253.26 470.08 1252.41 468.716C1251.57 467.33 1250.41 466.261 1248.94 465.511C1247.46 464.761 1245.77 464.386 1243.86 464.386C1241.93 464.386 1240.23 464.784 1238.78 465.58C1237.32 466.352 1236.19 467.477 1235.37 468.955C1234.57 470.432 1234.18 472.227 1234.18 474.341H1218.19C1218.19 469.591 1219.26 465.489 1221.39 462.034C1223.53 458.58 1226.53 455.92 1230.39 454.057C1234.28 452.17 1238.79 451.227 1243.93 451.227C1249.22 451.227 1253.82 452.114 1257.73 453.886C1261.64 455.659 1264.66 458.136 1266.8 461.318C1268.96 464.477 1270.04 468.148 1270.04 472.33C1270.04 474.989 1269.51 477.625 1268.44 480.239C1267.37 482.852 1265.45 485.739 1262.68 488.898C1259.93 492.057 1256.02 495.841 1250.95 500.25L1242.6 507.955V508.398H1270.89V522H1219.21ZM1278.08 510.409V497.25L1306.68 452.182H1318.37V470.045H1311.59L1294.85 496.568V497.114H1336.27V510.409H1278.08ZM1311.79 522V506.386L1312.13 500.625V452.182H1327.92V522H1311.79Z" fill="black"/>
</svg>
